<svg width="442" height="300" viewBox="0 0 115 78" xmlns="http://www.w3.org/2000/svg"><title>PostCSS-logo</title><path d="M113.794 33.895c-.053-1.028-.08-2.055-.185-3.083-.185-1.397-.37-2.82-.685-4.19-.237-1.133-.63-2.213-1.026-3.294-.5-1.265-1-2.556-1.633-3.768-1.026-1.95-2.368-3.69-3.605-5.508-.816-1.16-1.868-2.108-2.658-3.293-.447-.687-1.105-1.266-1.763-1.793-1.052-.844-2.157-1.608-3.262-2.346a32.738 32.738 0 0 0-2.58-1.632c-.71-.396-1.473-.712-2.21-1.054-.842-.396-1.658-.87-2.605-1.055-.237-.053-.447-.132-.684-.21-.606-.212-1.185-.45-1.79-.634-.922-.29-1.816-.632-2.764-.87C85.426.93 84.478.772 83.53.64 82.478.482 81.4.43 80.346.323 79.662.243 78.978.165 78.32.14c-1-.054-2.026-.054-3.026-.08-.5-.026-1.027-.08-1.527-.053-.763.027-1.526.106-2.29.21-.736.08-1.473.212-2.183.317-.87.106-1.737.158-2.606.264-.815.105-1.658.263-2.473.395-.29.053-.58.158-.87.21-.63.133-1.288.185-1.92.396a50.79 50.79 0 0 0-3.368 1.16c-1.027.42-2.027.868-3 1.395-1 .554-1.948 1.212-2.895 1.845-.895.606-1.79 1.238-2.658 1.923-.842.66-1.63 1.397-2.395 2.135-.422.42-.764.922-1.16 1.396-.656.765-1.314 1.503-1.946 2.293-.526.66-1 1.344-1.5 2.03-.895 1.21-1.658 2.502-2.368 3.794a45.12 45.12 0 0 0-.816 1.582c-.395.79-.816 1.555-1.184 2.37a10.05 10.05 0 0 0-.632 1.767 215.2 215.2 0 0 0-1.08 3.9c-.315 1.158-.394 2.37-.42 3.556-.026 1.054.08 2.082.184 3.136.027.264-.13.58.185.79-.106.29-.027.45.13.5-.183.29.08.476-.025.74-.027.052.08.157.13.236 0 .08-.025.185 0 .264.028.237.133.474.133.738 0 .184.16.395.21.58.028.08 0 .21-.05.263-.16.184-.133.343.104.448.132.344.08.502.053.66.052.237-.027.316 0 .37.21.42.29.895.316 1.37 0 .104.052.21.105.342.026 0 0 .5 0 .5.13-.08.237-.105.368-.158.08.343.158.66.263.95.13.21.13.315.078.34.106.476.158.924.342 1.372 0-.5-.052-1.002-.13-1.476.367.132.683.263.894.263.026-.08.052-.184.08-.237-.16-.158-.29-.395-.45-.553.054.21 0 .29 0 .37-.104-.054-.236-.107-.367-.16.105-.13.21-.263.368-.42 0-.238-.13-.45-.5-.423.158-.052.316-.13.5-.184.29-.158-.026-.448-.026-.817.025-.45-.238-.897-.317-1.37-.132-.74-.105-1.846-.184-2.584-.16-.13-.29.21-.317.238.08.632.158 1.264.21 1.897-.157-.526-.263-1.106-.394-1.738-.027.184-.054.263-.054.37-.13.13-.026.288.053.473-.185-.08-.396-.053-.396-.053v.738c-.263-.263-.342-.474-.474-.66-.052-.21-.08-.42-.13-.63.05-.133 0-.212 0-.29a20.663 20.663 0 0 1-.08-.633c.026-.027-.026-.422-.026-.422.21.026.342.053.473.053-.263-.343-.08-.554.027-.765.052-.105.236-.13.29-.237.21-.395.552-.71.552-1.212 0-.237.08-.5.105-.738.054-.448.106-.896.133-1.344.052-.58 0-1.16.13-1.713.212-.923.475-1.845.764-2.767.21-.66.448-1.292.71-1.95.396-1.028.764-2.056 1.264-3.03.71-1.424 1.527-2.794 2.317-4.19.5-.87 1.026-1.687 1.58-2.53.525-.817 1.05-1.66 1.657-2.425a21.348 21.348 0 0 1 2.79-2.977c1.052-.948 2.052-1.923 3.183-2.793a32.19 32.19 0 0 1 4.684-3.004c1.344-.71 2.738-1.265 4.133-1.792.895-.34 1.868-.5 2.79-.79 1.052-.342 2.105-.5 3.21-.526.71-.027 1.395-.106 2.105-.185.632-.053 1.263-.106 1.948-.185-.08.105-.106.158-.132.21-.29.422-.605.844-.895 1.266-.237.343-.5.712-.737 1.055-.422.553-.87 1.106-1.264 1.686-.606.87-1.16 1.767-1.79 2.636-.632.843-1.316 1.634-1.974 2.45-.868 1.134-1.684 2.293-2.552 3.427-.79 1.08-1.632 2.108-2.395 3.188-.685.95-1.29 1.95-1.95 2.926-.972 1.45-1.946 2.872-2.92 4.322a251.038 251.038 0 0 1-2.315 3.294c-.053.08-.132.105-.21.158-.21.342-.21.527-.29.685-.21.395-.42.79-.658 1.16-.132.21-.316.395-.474.605-.026-.316.42-.474.21-.87-.13.212-.263.396-.394.607l-.317.632c.105.078.29.13.105.29-.08.13-.158.29-.237.42a.94.94 0 0 0 .29-.263c0 .29-.157.527-.29.765-.104.21-.367.368-.55.527.025.025.21.104.236.13.237-.08.315-.21.342-.13.08-.107.158-.186.184-.265.105-.263.263-.474.526-.58.106-.052.185-.13.263-.21.79-.817 1.607-1.608 2.317-2.478 1.106-1.343 2.106-2.74 3.158-4.11.448-.58.974-1.16 1.448-1.713.078.606.026 1.186 0 1.74-.08.974-.132 1.95-.21 2.95-.027.396 0 .79-.027 1.186 0 .106-.08.185-.08.29 0 .264.08.553.08.817-.08.975-.185 1.924-.263 2.9-.027.21.078.42.13.605-.13 1.423.16 2.925-.078 4.427.184-.29.237-.476.237-.66.026-.158 0-.316 0-.5v-.264c.026-.475.132-.975.08-1.45-.054-.527-.054-1.027.052-1.528.052-.21-.027-.474.105-.738v.395c-.027 1.502.025 3.004-.185 4.507-.027.13.08.368-.21.342-.238.474.052.817-.21 1.08-.054.053.05.29.078.448-.106.317-.106.317.052.343.026.58.08 1.107.105 1.66.42-1 .21-2.03.395-3.057.026.422.053.844.026 1.292 0 .685-.025 1.344-.05 2.03 0 .13-.027.262-.054.394-.08.37-.105.738-.237 1.08-.106.264-.053.66-.053.975v1c.105.45-.027.686.052.95-.08.263-.106.342-.08.42l.08.396c.526-.052.29.343.5.554-.16.21-.106.29-.106.395 0 .237-.026.448-.053.685 0 .606-.025 1.212-.025 1.792 0 .08.026.158.026.237 0 .052-.025.737-.025.737.053.08 0 .158-.08.237-.025 0-.104-3.347-.104-3.347h-.394c-.052 1.582.08 3.005-.21 4.48-.316.027-.42.08-.763.08-.816 0-1.632 0-2.448.026-.974 0-1.92.026-2.895.026-.473 0-.973.052-1.447.052-.632 0-1.29-.08-1.92-.08-.975 0-1.922.08-2.896.106-.71.026-1.42.026-2.13.053a25.76 25.76 0 0 0-1.422.106c-.21.026-.395.106-.658.185-.08 0-.263-.026-.42 0-.264.053-.5.21-.764.264-.395.08-.5.185-.448.58v.263c-.026.053.58-.08.58-.08-.054 0-.08.16-.16.29.212-.078.343-.13.475-.183.395.184.737.08 1.053.158 1.026.263 2.078.37 3.13.474.685.053 1.343.08 2.027.106.974.052 1.948.105 2.92.105.817 0 1.607-.08 2.423-.08 1.13 0 2.263.054 3.394.08.237 0 .5-.026.763-.026h1.92c1.712-.052 3.423-.078 5.133-.13.974-.028 1.974-.08 2.947-.107l3-.08c1.158-.025 2.316-.025 3.448-.05.868 0 1.71-.028 2.58-.054.972-.027 1.972-.106 2.946-.16a31.87 31.87 0 0 0 1.58-.13c.63-.054 1.29-.133 1.92-.16.947-.052 1.92-.078 2.87-.13 1.183-.08 2.367-.185 3.577-.212 1.107-.052 2.238-.026 3.344-.052.973-.027 1.947-.08 2.947-.106l1.66-.08s1.104-.025 1.657-.078c.947-.053 1.894-.158 2.842-.184.604-.027 1.21 0 1.815-.027.973-.025 1.973-.078 2.947-.078.368 0 .763.053 1.237.08-.212.184-.343.29-.5.42.104.027.21.08.315.133a.71.71 0 0 1-.42.132c-.054.13-.107.184-.16.447h.474c-.185 0-.343.238-.527.396-.21-.053-.395 0-.5.29.184.105.158.184.132.29-.316.105-.553.21-.42.553-.107.053-.238.105-.37.184-.13.21-.368.264-.316.554.105.027.21.08.29.106-.133.053-.264.132-.396.185-.474.29-.263.422-.158.554-.08.053-.158.105-.237.132.052.237.13.29.157.29-.105.08-.237.184-.394.316-.08.237-.185.342-.29.5-.105.16-.158.37-.29.527-.552.606-.947 1.317-1.657 1.79-.263.186-.5.423-.737.66-.475.448-.896.95-1.396 1.37a29.966 29.966 0 0 1-2.053 1.555c-.867.606-1.735 1.212-2.604 1.792-.473.316-1 .553-1.5.843-.5.29-.973.554-1.473.844-.316.21-.606.5-.948.658-.868.37-1.79.685-2.684 1.028-.867.37-1.5.685-2.157.922-.605.21-1.237.37-1.868.5-.21.054-.448 0-.685.027-.447.078-.894.184-1.342.237-1.158.158-2.315.263-3.473.42-.685.08-1.342.212-2.027.29-.473.027-.973-.025-1.447-.025-.34 0-.71.08-1.052.026-.552-.08-1.105-.21-1.658-.316-.13-.027-.315-.08-.42-.027-.21.106-.395-.052-.606 0-.13.027-.263-.08-.395-.08-.106-.025-.237.028-.37 0-.29-.078-.552-.183-.867-.157-.316.027-.632-.13-.974-.21-.475-.106-.922-.21-1.396-.317a2.32 2.32 0 0 1-.526-.236c-.684 0-1.132-.026-1.553-.184-.368-.132-.71-.317-1.105-.264-.105.026-.184-.026-.29-.026-.08-.106-.157-.316-.236-.316-.527.026-.843-.422-1.29-.554-.237-.08-.42-.342-.658-.42-.58-.24-1.052-.74-1.71-.818-.21-.027-.42-.132-.658-.21.08.104.13.183.21.262-.763-.37-1.473-.79-2.184-1.185-.105-.028-.184-.133-.263-.186l-.71-.474c-.394.08-.552-.08-.657-.132-.71-.5-1.527-.817-2.21-1.37-.29-.237-.633-.396-.843-.685-.37-.448-.816-.765-1.316-1.028-.395-.21-.763-.448-1.13-.685-.186-.132-.37-.29-.37-.58 0-.184-.08-.37-.316-.263-.105-.16-.21-.343-.342-.396-.316-.13-.526-.368-.763-.578-.237-.21-.42-.5-.71-.607-.527-.21-.843-.658-1.158-1.027-.737-.87-1.395-1.82-2.08-2.74-.052-.08-.157-.133-.236-.212.104.29.236.527.367.79-.263-.104-.447-.29-.605-.473-.026.026 1.816 3.056 1.816 3.056.158.237.29.474.447.71a.81.81 0 0 1-.79-.42c-.236-.422-.5-.686-1.026-.633a4.595 4.595 0 0 1-.132-.58c-.105 0-.184 0-.37-.026.37.58.686 1.08 1.028 1.66-.132-.078-.21-.13-.263-.157.473.5.815 1.133 1.42 1.45.132.605.816.895.974 1.475-.13-.027-.237-.053-.368-.08-.212-.263-.45-.526-.685-.816.052.184.13.342.236.474.317.395.607.79.975 1.133.132.13.316.184.316.42.21.106.29.133.37.133.052.158-.027.395.29.342.21.395.42.395.71.264.34.34.526.368.763.157 0 .132.026.263.026.37.104-.054.078-.133.078-.265.13.106.21.158.263.21.264.37.5.712.87 1.002.5.422.947.87 1.42 1.265.92.763 1.948 1.396 2.974 1.976 1.263.71 2.474 1.475 3.763 2.16 1.553.817 3.21 1.37 4.92 1.766a47.58 47.58 0 0 1 1.87.422c.552.158 1.105.395 1.658.527.842.185 1.71.343 2.552.5.184.028.37.054.58.08.236.053.526-.052.578.027.132.21.237.105.395.08.184-.054.395-.054.605-.054.737.026 1.448.184 2.184.132.157 0 .394-.132.526.132.237-.106.368-.106.473-.132.026.237 0 .237-.053.263-.053.027-.132.053-.237.132.947.184 1.842.21 2.63 0 1.37.105 2.554-.053 3.686-.448.105.132.184.316.342.053.052-.08.184-.106.29-.132.236-.053.526-.158.736-.08.237.08.316-.13.5-.13.316 0 .605-.027.895-.08.157-.026.315-.105.5-.158a1.296 1.296 0 0 0-.58-.132c.316-.158.605-.29.895-.42-.053.078-.106.183-.21.183h.368c-.08 0-.185.237-.316.395.947-.236 1.816-.447 2.658-.657-.29-.554.315-.37.526-.686-.262.08-.525.16-.79.21.896-.447 1.817-.842 2.712-1.237-.132.158-.29.237-.526.37.158.025.263.025.342.05.42.133.316-.262.447-.5.5 0 .71-.078.948-.157.263-.08.526-.16.79-.264.42-.185.815-.423 1.236-.633.078-.027.21 0 .315 0 .29-.185.394-.343.473-.317.37.053.632-.08.737-.42.184-.133.316-.238.448-.317.578-.317 1.13-.633 1.71-.95.21 0 .316 0 .368-.025.344-.16.66-.343.975-.527-.08-.026-.263-.13-.263-.13.263-.054.342-.08.5-.133.632-.738 1.5-1.238 2.158-1.818.29-.028.29-.107.29-.16.105-.13.21-.29.34-.395.58-.527 1.212-.975 1.738-1.528a36.97 36.97 0 0 0 2.185-2.372c.63-.737 1.263-1.475 1.79-2.292.736-1.133 1.367-2.293 2.025-3.48.474-.842.895-1.685 1.37-2.528.05-.08.157-.185.236-.185.71-.08 1.42-.13 2.105-.21.157-.027.34-.132.5-.21-.08-.133-.133-.29-.212-.423-.105-.158-.263-.29-.368-.448a2.503 2.503 0 0 1-.263-.45c-.08-.13-.158-.236-.237-.368-.158-.29-.316-.58-.447-.896-.027-.08-.08-.21-.053-.29.474-1.027.658-2.134 1.105-3.162.448-1.054.58-2.24.79-3.373.184-1.08.29-2.16.42-3.24.08-.764.185-1.502.21-2.266.16-1.212.106-2.345.08-3.48-.026-1-.08-2.028-.13-3.03zM59.662 23.302c.842-1.16 1.71-2.32 2.553-3.505.263-.343.473-.71.736-1.054.08-.105.186-.158.317-.264l-.026-.053c.106-.132.21-.237.264-.343.132-.21.21-.448.316-.685.026-.054.105-.106.105-.106.37.184.37-.21.5-.343.237-.262.474-.552.684-.816.157-.21.315-.395.447-.632.026-.08-.053-.21-.08-.316H65.4c.078-.053.157-.132.236-.185.026 0 .026 0 .052-.025.158-.237.316-.475.474-.685.316-.422.658-.844 1.026-1.213a5.168 5.168 0 0 1-.158.37c.027 0 .027.026.053.026.316-.422.658-.817.974-1.24-.027-.025-.053-.05-.08-.05-.13.13-.236.262-.368.394-.027-.027-.053-.053-.08-.053.264-.342.527-.685.79-1.08.053.08.105.184.21.395.106-.265.21-.45.29-.633-.08.08-.184.158-.263.237l-.08-.08.474-.71c.5-.712 1-1.45 1.5-2.162.186-.263.423-.474.58-.738.5-1 1.29-1.79 1.895-2.714.132-.184.316-.342.474-.5.13-.158.236-.106.34.026.71.896 1.422 1.818 2.133 2.714.526.66 1.052 1.29 1.552 1.977.605.843 1.184 1.686 1.79 2.53.684.974 1.368 1.95 2.026 2.95 1 1.476 1.948 2.952 2.948 4.428.737 1.08 1.474 2.134 2.185 3.214H85.03c-1.236-.027-2.5-.132-3.736-.08-1.685.08-3.395.264-5.08.396-2.13.184-4.29.21-6.42.21-.764 0-1.527.106-2.29.16-.92.05-1.816.104-2.737.13a130.6 130.6 0 0 1-3.21.106c-.606.026-1.237 0-1.895 0zm30.184 12.12v.24c-.026 0-.052.025-.105.025-.104-.37-.21-.764-.34-1.133-.264-.764-.554-1.53-1.027-2.214-.527-.738-1-1.502-1.527-2.266-.13-.184-.316-.342-.473-.5-.553-.607-1.106-1.24-1.816-1.687a21.508 21.508 0 0 0-3.29-1.687 7.642 7.642 0 0 1-.92-.474h.63l4.5-.08c.974-.025 1.922-.025 2.896-.078.236 0 .368.08.5.29.236.395.473.79.736 1.186.026.052.078.13.078.21 0 .58 0 1.186.027 1.766.026.606.08 1.186.105 1.792 0 .606-.053 1.238-.026 1.87.026.897.052 1.82.052 2.74zM61.53 26.597c1.237-.053 2.42-.132 3.632-.185.947-.05 1.92-.078 2.868-.13.395-.027.764-.053 1.158 0-.42.21-.842.42-1.21.685-.474.316-.92.737-1.395 1.08-.474.343-.895.764-1.29 1.212-.5.606-1.052 1.133-1.578 1.713-.37.422-.79.817-1.106 1.265-.448.58-.843 1.212-1.264 1.87.132-2.503.29-4.98.184-7.51zm17.185 25.35c-.842.21-1.71.448-2.58.553-.736.104-1.5.078-2.262.078-.685 0-1.343-.026-2.027-.08-.763-.078-1.526-.157-2.263-.5-.632-.29-1.29-.553-1.92-.87-.633-.315-1.264-.684-1.738-1.264-.342-.422-.816-.764-1.237-1.133.08.317.263.58.553.765-.13.158-.315.08-.578-.343-.08.053-.158.08-.21.106.078-.185.157-.37.236-.527-.105-.21-.237-.447-.342-.658-.21-.343-.42-.71-.605-1.054-.052-.08-.052-.158-.104-.237a5.787 5.787 0 0 1-.37-.473c-.21-.317-.393-.66-.657-.975 0 .08.026.158.026.263-.027 0-.053.026-.053.026l-.553-1.343c-.026 0-.026 0-.052.027l.473 1.74c-.025 0-.05.025-.077.025a1.494 1.494 0 0 1-.21-.343c-.054-.21-.212-.21-.343-.132-.08.053-.132.237-.105.316.184.45.394.897.605 1.345.053.158.105.29.184.448.026.053.105.106.105.185.105.21.184.42.315.606.237.316.5.632.737.948.237.317.447.66.658.975.026.053.105.053.13.08.133.395.58.685.896.526.08.606.737.817 1 1.397a12.125 12.125 0 0 1-.763-.343c-.026.027-.026.053-.053.106.316.158.632.316.92.5.265.16.528.317.765.5.315.29.684.45 1.13.555a.29.29 0 0 0-.05-.106c.735.343 1.5.712 2.078 1.002-2.737.052-5.658.105-8.685.158 0-.5-.026-.975-.026-1.476 0-.21.053-.395.026-.606-.08-1.212-.08-2.424-.237-3.61-.156-1.265-.156-2.504-.13-3.768.026-.686-.026-1.397-.053-2.082 0-.923 0-1.818.027-2.74 0-.133.052-.238.105-.37h.078c.026.053 0 .132.052.158.08.08.21.21.264.185.157-.106.394-.21.447-.37.133-.315.185-.658.185-.974 0-.238.105-.396.21-.554.053-.08.08-.16.132-.264-.105-.08-.21-.132-.342-.237.105-.29.08-.633.474-.79.05-.027.05-.16.078-.238.026-.21.052-.448.08-.66.05.08.078.107.13.16.027-.053.053-.08.053-.08 0-.105-.025-.316 0-.316.317-.05.185-.394.343-.552.026-.026-.026-.106-.026-.158 0-.053 0-.132.026-.132.368-.08.316-.474.553-.66.08-.05.105-.13.21-.262.21.37-.158.553-.184.817.447-.264.58-.896.316-1.08.105-.08.21-.185.29-.29.29-.317.605-.607.868-.923.184-.237.29-.527.473-.764.105-.132.315-.237.473-.316.474-.264.92-.554 1.21-1.002.053-.052.132-.105.21-.158.08-.053.238-.053.264-.132.027-.052-.052-.184-.105-.263.105-.053.21-.158.42-.264-.078.16-.104.265-.157.37l.132.132c.237-.184.605-.395.842-.553 0-.028-.133-.133-.133-.133-.158.08-.394.21-.63.316.05-.08.05-.132.078-.158.368-.237.736-.474 1.13-.66.922-.42 1.843-.842 2.764-1.237.157-.08.368-.027.552-.027.08 0 .132 0 .21-.025.422-.132.843-.263 1.264-.37a2.19 2.19 0 0 1 .58-.078c.788.026 1.578.026 2.367.08.342.025.658.105.974.21.394.132.816.316 1.184.5.448.238.87.5 1.29.79.764.502 1.474 1.055 2.237 1.503.737.448 1.316 1.054 1.79 1.74.58.816 1.237 1.554 1.5 2.555l.394 1.74c.08.316.265.632.186 1-.132.66-.237 1.345-.342 2.004-.053.262-.106.526-.08.79.053.816-.263 1.528-.578 2.265-.106.238-.263.475-.395.738a.787.787 0 0 0 .21.106l.238-.476c.027 0 .027 0 .053.027-.13.37-.236.765-.367 1.134-.316.817-.632 1.66-1.027 2.45-.21.448-.58.817-.842 1.24-.263.368-.474.763-.737 1.106-.237.29-.473.58-.79.79-.71.527-1.447 1.054-2.21 1.476-.473.29-1.026.448-1.552.58zm2.342 2.213c1.184-.5 2.158-1.213 3.052-2.03.13-.132.263-.263.42-.37 1.106-.684 1.92-1.633 2.658-2.687.842-1.212 1.395-2.582 2.08-3.873.052-.106.105-.21.157-.29-.052 3.004.29 5.955.684 8.933-2.974.105-6 .21-9.053.316zm26.684-.79c-.025.05-.078.104-.104.157-.027-.053-.027-.132-.053-.237-.158.42-.5.21-.737.21-1.42.027-2.868.027-4.29.027-1.368 0-2.762 0-4.13.026-.448 0-.922.106-1.37.132-1.078.053-2.157.08-3.236.105-.08 0-.158-.13-.29-.237-.026.053-.08.132-.157.237-.027-.052-.08-.105-.132-.184-.025.08-.052.158-.078.21h-.08c-.052-.368-.157-.71-.157-1.08 0-.79.08-1.58.105-2.37.027-.37 0-.713 0-1.055.106.08.185.132.29.21.053-.104.105-.183.158-.262 0 0-.053-.026-.105-.08.052-.026.105-.078.105-.105.026-.08.08-.158.08-.21 0-.185-.054-.343-.08-.5.026 0 .052 0 .08-.027l.157.79h.08c-.107-.184.235-.342-.054-.553-.025-.027.027-.185.027-.264-.08-.16-.13-.317-.21-.528.026-.026.105-.053.184-.08-.104-.052-.183-.104-.262-.13.263-.238.263-.37.026-.633.053-.027.105-.027.105-.054 0-.237 0-.474-.053-.71-.053-.265.08-.58-.316-.74a.79.79 0 0 0 .106.212s-.08.026-.158.08c-.342-.317-.13-.74-.21-1.213.184.052.316.105.447.158-.052-.185-.184-.396-.263-.633h-.105V42.3c0 .027.184.027.29.054 0-.027.026-.053.026-.08-.08-.105-.185-.21-.29-.342l.053-.053c-.21-.264-.106-.633-.106-.712v-1.845c.264.264-.13.606.264.765v-.264h-.027c-.026-.395-.026-.79-.052-1.186h-.053c-.026.053-.026.08-.053.132h-.053l.158-6.298c.263.343.552.66.736 1 .607 1.108 1.396 2.057 2.133 3.058.632.87 1.21 1.818 1.79 2.714.71 1.08 1.394 2.16 2.105 3.242.526.816 1.08 1.633 1.63 2.424.5.71 1.028 1.397 1.554 2.082.447.606.92 1.212 1.368 1.818.527.738 1.053 1.476 1.58 2.187.263.37.552.738.84 1.107.16.21.396.37.554.5-.026 0-.053 0-.105-.026.078.106.13.185.183.237.29.158.316.317.158.554zm1.343-6.59v-.184c0 .053.026.132 0 .185zm.895-11.62c-.027 0-.184-.158-.21-.185-.027.08 0 .16-.053.264-.027-.08-.21-.054-.21-.133-.027.37.157.738.13 1.107.08-.053.395-.08.474-.158a.2.2 0 0 0 .105.053c-.527.394-.395.79-.158 1.237.052.105.21.316.052.527-.053.053.026.21.052.343h.08v.052l-.238.078c-.053-.08-.368-.237-.368-.37v1.345c.263.08.263.448.368.633a.79.79 0 0 0 .105-.21l.026.025c-.027.16-.053.318-.106.476-.052.237-.105.448-.13.685 0 .027.05.08.05.106-.288.66-.13 1.397-.235 2.082-.08.5 0 1.028-.053 1.555-.053.448-.158.922-.263 1.37-.027.08-.08.105-.212.158.053-.315.027-.526-.026-.816-.026 0-.368-.184-.395-.184 0 .37.21.87.29 1.29-.08-.025-.395-.21-.42-.21-.054.316-.054.738-.08 1.08-.027.264-.263.5-.29.79 0 .16.184.265.158.528h.21c0-.527.238-1 .238-1.555h.078c.028.053.107.106.08.132-.052.29-.157.606-.13.896 0 .16.13.317.078.502-.053.158-.08.316-.105.553-.027-.132-.053-.184-.053-.263-.026 0-.263-.027-.29-.027-.026.158.185.317.158.448-.026.027-.052.027-.105.053l-.868-1.265c-.685-1-1.37-2.002-2.053-3.03a6.276 6.276 0 0 1-.474-.79 37.205 37.205 0 0 0-2.71-4.032c-.763-.975-1.37-2.03-2.08-3.056-.657-.975-1.315-1.924-1.973-2.9-.237-.315-.526-.605-.737-.948-.684-1.08-1.29-2.187-1.973-3.267-.58-.896-1.21-1.766-1.816-2.635-.212-.29-.422-.606-.633-.923a.38.38 0 0 1-.052-.185c-.053-.58-.106-1.16-.132-1.713 0-.527.053-1.054.053-1.607v-.475c0-.13.026-.237.026-.37.026-.025.053-.078.08-.104-.764 0-1.554-.026-2.317 0-.5.026-.763-.184-1.105-.553-1-1.134-1.737-2.425-2.605-3.637-.816-1.16-1.658-2.292-2.5-3.426-.685-.922-1.37-1.818-2.053-2.74-.763-1.054-1.5-2.108-2.29-3.162-.947-1.265-1.92-2.53-2.894-3.795-.448-.58-.948-1.133-1.448-1.74.343.054.658.106.974.133l1.263.08c.948.078 1.895.13 2.842.262.79.106 1.578.264 2.394.396 1.737.29 3.447.764 5.105 1.317.973.317 1.92.74 2.868 1.134 2.13.87 4.158 1.924 6.158 3.03.63.343 1 .897 1.473 1.397.684.713 1.368 1.424 2.026 2.162.763.87 1.473 1.766 2.21 2.662.658.79 1.342 1.58 2 2.37.21.238.37.528.553.792.42.632.894 1.238 1.262 1.923.263.5.42 1.08.605 1.633.263.817.527 1.608.79 2.424.184.607.342 1.24.473 1.87.106.423.08.87.21 1.293.16.553 0 1.16.16 1.712.025.053.05.132.078.185.105.105.184.21.026.37-.026.025-.026.13 0 .21.053-.053.08-.106.132-.185 0 .053.026.08.026.106 0 .105-.026.21 0 .316 0 .053.053.132.08.184.052-.052.104-.08.21-.158.236.896.263 1.792.263 2.714 0 .87.158 1.74-.21 2.583.078-.29-.106-.554-.027-.817zm-62 .58c.29-.37.58-.738.895-1.107.026.026.236.08.263.105-.29.37-.685.87-.974 1.265-.053-.053-.132-.237-.184-.263zm-7.474 12.912c-.21-.448-.42-.923-.63-1.37a.934.934 0 0 1 .235-.106c.29.422.42.922.63 1.37 0 0-.21.106-.236.106zm6.802-11.31c-.17.086-.298.18-.276.427 0 .078-.13.183-.263.262-.237.29-.58.738-.816 1.002.08.026.212.026.212.052 0 .08 0 .185-.053.237-.264.21-.527.396-.764.606-.052.026-.08.13-.105.184-.104.21-.13.5-.5.448.027-.264-.052-.395-.367-.316.21-.343.394-.606.578-.896.29-.237.554-.448.817-.685l.474-.317c.106-.08.185-.184.29-.263 0 .026.08-.026.132-.053.08-.21.158-.448.237-.66-.027-.025-.027-.05-.054-.078-.105.158-.184.317-.29.475l-.026-.028c-.236.21-.552.554-.736.738a.77.77 0 0 1 .052-.237c.158-.158.342-.29.5-.448 0 0 .08-.026.132-.08l-.027-.025c.054-.132.08-.264.107-.317.13-.105.263-.13.29-.21.104-.29.183-.396.394-.37 0-.052 0-.078-.052-.13.158-.106.316-.238.474-.344.026.026.053.026.08.052-.106.158-.106.29-.212.474 0 0-.08.027-.13.027-.054.08-.106.158-.133.237 0 .026.027.105.132.184l-.014.007.092.047c.105-.184.21-.343.316-.527l.105.105-.238.396-.71 1.028c-.053.08-.106.21-.185.238-.08.026-.184-.027-.29-.08.354-.1.708-.59.83-1.165zm-7.828 8.148c.105.263.21.553.316.817a.787.787 0 0 0-.21.105c-.106-.264-.238-.553-.343-.817a.65.65 0 0 1 .238-.105zm58.58 25.192c.13-.053.288-.08.5-.132-.238.184-.422.316-.58.474-.027-.026-.053-.053-.08-.053.053-.104.106-.183.16-.288z" fill="#DD3A0A" fill-rule="evenodd"/></svg>