<svg xmlns="http://www.w3.org/2000/svg" enable-background="new 0 0 300 300" viewBox="0 0 300 300" height="100%" width="100%" version="1.1" y="0px" x="0px"><path d="M57.5,125.8c0.4,0.3,1.1,0.5,0.4,1.1-0.5,0.7-1.1,1.3-1.5,2.1-0.4,0.7-0.7,0.9-1.3,0.4,0.8-1.3,1.6-2.5,2.4-3.6z" fill="#DD3735"/><path d="M258.5,230.6c0,0.3,0.1,0.5,0.1,0.8,0.2-0.4,0.2-0.6,0.3-0.8h-0.4z" fill="#DD3735"/><path d="M258.5,231.5v-0.1,0.1z" fill="#DD3735"/><polygon points="238.1,270.5,238.1,270.5,238.1,270.5" fill="#DD3735"/><path d="M220.7,174.1c-0.3-0.1-0.7-0.3-1.4-0.5,0.2,0.4,0.3,0.7,0.4,1,0.5-0.1,0.7-0.1,0.9-0.2,0-0.1,0-0.2,0.1-0.3z" fill="#DD3735"/><path d="M220.1,152.4c-0.1,0.3-0.1,0.6-0.1,0.9,0-0.3,0-0.6,0.1-0.9z" fill="#DD3735"/><path d="M220.2,154.4c-0.1,0-0.1,0-0.2-0.1v0.1c0.1,0.1,0.1,0.1,0.2,0z" fill="#DD3735"/><path d="M220,155.2v-0.7c-0.3,0.1-0.6,0.1-1,0.2,0.5,0.2,1,0.3,1,0.5z" fill="#DD3735"/><path d="M298.4,142.4c-0.1-3.8-0.3-7.7-0.5-11.5-0.2-3.9-0.3-7.8-0.7-11.7-0.7-5.3-1.4-10.7-2.6-15.9-0.9-4.3-2.4-8.4-3.9-12.5-1.9-4.8-3.8-9.7-6.2-14.3-3.9-7.4-9-14-13.7-20.9-3.1-4.4-7.1-8-10.1-12.5-1.7-2.6-4.2-4.8-6.7-6.8-4-3.2-8.2-6.1-12.4-8.9-3.2-2.2-6.4-4.3-9.8-6.2-2.7-1.5-5.6-2.7-8.4-4-3.2-1.5-6.3-3.3-9.9-4-0.9-0.2-1.7-0.5-2.6-0.8-2.3-0.8-4.5-1.7-6.8-2.4-3.5-1.1-6.9-2.4-10.5-3.3-3.5-0.9-7.1-1.5-10.7-2-4-0.6-8.1-0.8-12.1-1.2-2.6-0.3-5.2-0.6-7.7-0.7-3.8-0.2-7.7-0.2-11.5-0.3-1.9-0.1-3.9-0.3-5.8-0.2-2.9,0.1-5.8,0.4-8.7,0.8-2.8,0.3-5.6,0.8-8.3,1.2-3.3,0.4-6.6,0.6-9.9,1-3.1,0.4-6.3,1-9.4,1.5-1.1,0.2-2.2,0.6-3.3,0.8-2.4,0.5-4.9,0.7-7.3,1.5-4.3,1.3-8.6,2.8-12.8,4.4-3.9,1.6-7.7,3.3-11.4,5.3-3.8,2.1-7.4,4.6-11,7-3.4,2.3-6.8,4.7-10.1,7.3-3.2,2.5-6.2,5.3-9.1,8.1-1.6,1.6-2.9,3.5-4.4,5.3-2.5,2.9-5,5.7-7.4,8.7-2,2.5-3.8,5.1-5.7,7.7-3.4,4.6-6.3,9.5-9,14.4-1.1,2-2.1,4-3.1,6-1.5,3-3.1,5.9-4.5,9-1,2.1-1.8,4.4-2.4,6.7-1.4,4.9-2.8,9.9-4.1,14.8-1.2,4.4-1.5,9-1.6,13.5-0.1,4,0.3,7.9,0.7,11.9,0.1,1-0.5,2.2,0.7,3,0.1,0,0,0.4-0.1,0.5-0.3,0.6,0,1.2,0.6,1.4,0,0,0.1,0.1,0.1,0.2h-0.5c-0.3,0.9,0.7,1.6,0.3,2.6-0.1,0.2,0.3,0.6,0.5,0.9,0,0.3-0.1,0.7,0,1,0.1,0.9,0.5,1.8,0.5,2.8,0,0.7,0.6,1.5,0.8,2.2,0.1,0.3,0,0.8-0.2,1-0.6,0.7-0.5,1.3,0.4,1.7,0.2,0.1,0.5,0.5,0.5,0.7,0,0.6-0.2,1.2-0.3,1.8,0.2,0.2,0.3,0.4,0.2,0.6,0,0.3-0.3,0.6-0.2,0.8,0.8,1.6,1.1,3.4,1.2,5.2,0,0.4,0.2,0.8,0.4,1.3,0.1,0,0.4,0,0.6,0.1-0.2,0.6-0.4,1.2-0.6,1.8,0.5-0.3,0.9-0.4,1.4-0.6,0.3,1.3,0.6,2.5,1,3.6,0.1,0.2,0.3,0.4,0.6,0.6-0.1,0.2-0.1,0.6-0.3,0.7,0.4,1.8,0.6,3.5,1.3,5.2,0.1,0,0.2-0.1,0.3-0.1-0.3-1.8-0.5-3.7-0.8-5.5v-0.1-0.5s0.2-0.1,0.3-0.1c0.1,0.4,0.3,0.9,0.3,1.2,0.8,0,2,0.5,2.8,0.5,0.1-0.3,0.2-0.7,0.3-0.9-0.6-0.6-1.1-1.5-1.7-2.1,0.2,0.8,0,1.1,0,1.4-0.4-0.2-0.9-0.4-1.4-0.6,0.4-0.5,0.8-1,1.4-1.6,0-0.9-0.5-1.7-1.9-1.6,0.6-0.2,1.2-0.5,1.9-0.7,0.1,0.3,0.2,0.6,0.3,0.8,0.8-1.4-0.4-2.5-0.4-3.9,0.1-1.7-0.9-3.4-1.2-5.2-0.5-2.8-0.4-7-0.7-9.8,0-0.2-0.3-0.4-0.5-0.6-0.1,0.1-0.6,1.4-0.7,1.5,0.3,2.4,0.6,4.8,0.8,7.2-0.1,0-0.2,0-0.2,0.1-0.4-2.1-0.8-4.3-1.3-6.7-0.1,0.7-0.2,1-0.2,1.4-0.3-0.1-0.4-0.2-0.9-0.4,0.4,0.9,0.8,1.5,1.1,2.2-0.7-0.3-1.5-0.2-1.5-0.2v2.8c-1-1-1.3-1.8-1.8-2.5-0.2-0.8-0.3-1.6-0.5-2.4,0,0,0.3-0.1,0.3-0.1-0.1-0.4-0.3-0.7-0.3-1-0.1-0.7-0.2-1.5-0.3-2.4,0.1-0.1,0.5-0.2,0.7-0.4-0.2-0.3-0.4-0.6-0.8-1.2,0.8,0.1,1.3,0.2,1.8,0.2,0-0.2,0.1-0.3,0-0.4-1-0.9-0.3-1.7,0.1-2.5,0.2-0.4,0.9-0.5,1.1-0.9,0.8-1.5,2.1-2.7,2.1-4.6,0-0.9,0.3-1.9,0.4-2.8,0.2-1.7,0.4-3.4,0.5-5.1,0.2-2.2,0-4.4,0.5-6.5,0.8-3.5,1.8-7,2.9-10.5,0.8-2.5,1.7-4.9,2.7-7.4,1.5-3.9,2.9-7.8,4.8-11.5,2.7-5.4,5.8-10.6,8.8-15.9,1.9-3.3,3.9-6.4,6-9.6,2-3.1,4-6.3,6.3-9.2,3.2-4.1,6.7-7.9,10.6-11.3,4-3.6,7.8-7.3,12.1-10.6,5.6-4.3,11.5-8.1,17.8-11.4,5.1-2.7,10.4-4.8,15.7-6.8,3.4-1.3,7.1-1.9,10.6-3,4-1.3,8-1.9,12.2-2,2.7-0.1,5.3-0.4,8-0.7,2.4-0.2,4.8-0.4,7.4-0.7-0.3,0.4-0.4,0.6-0.5,0.8-1.1,1.6-2.3,3.2-3.4,4.8-0.9,1.3-1.9,2.7-2.8,4-1.6,2.1-3.3,4.2-4.8,6.4-2.3,3.3-4.4,6.7-6.8,10-2.4,3.2-5,6.2-7.5,9.3-3.3,4.3-6.4,8.7-9.7,13-3,4.1-6.2,8-9.1,12.1-2.6,3.6-4.9,7.4-7.4,11.1-3.7,5.5-7.4,10.9-11.1,16.4-2.9,4.2-5.8,8.3-8.8,12.5-0.2,0.3-0.5,0.4-0.8,0.6-0.2,0.2-0.6,0.4-0.6,0.6-0.2,0.7-0.2,1.4-0.5,2-0.8,1.5-1.6,3-2.5,4.4-0.5,0.8-1.2,1.5-1.8,2.3-0.2-0.1-0.3-0.2-0.5-0.2,0.4-1,2.1-1.6,1.3-3.1-0.5,0.8-1,1.5-1.5,2.3-0.4,0.8-0.8,1.6-1.2,2.4,0.4,0.3,1.1,0.5,0.4,1.1-0.3,0.5-0.6,1.1-0.9,1.6,0.1,0,0.1,0.1,0.2,0.1,0.3-0.4,0.6-0.7,0.9-1.1,0.1,0,0.2,0.1,0.3,0.1-0.3,1-0.9,1.9-1.4,2.8-0.4,0.8-1.4,1.4-2.1,2,0.1,0.1,0.8,0.4,0.9,0.5,0.3-0.4,0.4-0.2,0.7-0.6,0.2,0.3,0.5-0.2,0.6,0.1,0.3-0.4,0.6-0.7,0.7-1,0.4-1,1-1.8,2-2.2,0.4-0.2,0.7-0.5,1-0.8,3-3.1,6.1-6.1,8.8-9.4,4.2-5.1,8-10.4,12-15.6,1.7-2.2,3.7-4.4,5.5-6.5,0.2,0.1,0.4,0.1,0.5,0.2-0.2,2.1-0.4,4.3-0.5,6.4-0.3,3.7-0.5,7.4-0.8,11.2-0.1,1.5,0,3-0.1,4.5,0,0.4-0.3,0.7-0.3,1.1,0,1,0.3,2.1,0.3,3.1-0.3,3.7-0.7,7.3-1,11-0.1,0.8,0.3,1.6,0.5,2.3-0.1-0.1-0.2-0.2-0.5-0.4,0,5.8,1.1,11.5,0.2,17.2,0.4-0.1,0.6-0.2,0.6-0.4,0.1-0.7,0.3-1.4,0.3-2.1,0.1-0.6,0-1.2,0-1.9v-1c0.1-1.8,0.5-3.7,0.3-5.5-0.2-2-0.2-3.9,0.2-5.8,0.2-0.8-0.1-1.8,0.4-2.8v1.5c-0.1,5.7,0.1,11.4-0.7,17.1-0.1,0.5,0.3,1.4-0.8,1.3-0.1,0-0.2,0.5-0.4,0.8-0.5,1,0.6,2.3-0.4,3.3-0.2,0.2,0.2,1.1,0.3,1.7,0,0.2,0.1,0.4,0,0.5-0.4,0.7-0.4,0.7,0.2,0.8,0.1,2.2,0.3,4.2,0.4,6.3h0.3c1.3-3.8,0.5-7.7,1.2-11.6,0.1,1.6,0.2,3.2,0.1,4.9,0,2.6-0.1,5.1-0.2,7.7,0,0.5-0.1,1-0.2,1.5-0.3,1.4-0.4,2.8-0.9,4.1-0.4,1-0.2,2.5-0.2,3.7v3.8c0,0.1,0.3,0.4,0.3,0.8,0.1,0.9-0.4,1.8-0.1,2.8,0.1,0.2-0.1,0.5-0.2,0.7-0.1,0.3-0.2,0.6-0.1,0.9,0.1,0.5,0.2,1,0.3,1.5,0,0.1,0.1,0.2,0.2,0.4,0.1-0.4,0.1-0.7,0.1-0.8,1.7,0.2,0.8,1.7,1.6,2.5-0.4,0.2-0.7,0.3-0.7,0.4,0.1,0.4,0.3,0.7,0.3,1.1,0,0.9-0.1,1.7-0.2,2.6,0,2.3-0.1,4.6-0.1,6.8,0,0.3,0.1,0.6,0.1,0.9,0,0.2-0.1,0.4-0.1,0.7v2.1h0.4c-0.2,0.3-0.4,0.6-0.7,0.9-0.1,0-0.4,0-0.4-0.1v-12.6h-1.5c-0.2,6,0.3,11.4-0.8,17-1.2,0.1-1.6,0.3-2.9,0.3-3.1,0-6.2,0-9.3,0.1-3.7,0-7.3,0.1-11,0.1-1.8,0-3.7,0.2-5.5,0.2-2.4,0-4.9-0.3-7.3-0.3-3.7,0-7.3,0.3-11,0.4-2.7,0.1-5.4,0.1-8.1,0.2-1.8,0.1-3.6,0.2-5.4,0.4-0.8,0.1-1.5,0.4-2.5,0.7-0.3,0-1-0.1-1.6,0-1,0.2-1.9,0.8-2.9,1-1.5,0.3-1.9,0.7-1.7,2.2v1c-0.2-0.2-0.5-0.4-0.7-0.5-0.1,0-0.2,0.1-0.2,0.1,0.1,0.3,0.3,0.5,0.4,0.8,0.4-0.2,0.9-0.7,1.3-0.7h1.4c-0.2,0-0.3,0.6-0.6,1.1,0.8-0.3,1.3-0.5,1.8-0.7,0.1,0.3,0.1,0.7,0.1,0.8,1.4-0.1,2.7-0.5,3.9-0.2,3.9,1,7.9,1.4,11.9,1.8,2.6,0.2,5.1,0.3,7.7,0.4,3.7,0.2,7.4,0.4,11.1,0.4,3.1,0,6.1-0.3,9.2-0.3,4.3,0,8.6,0.2,12.9,0.3,0.9,0,1.9-0.1,2.9-0.1h7.3c6.5-0.2,13-0.3,19.5-0.5,3.7-0.1,7.5-0.3,11.2-0.4,3.8-0.1,7.6-0.2,11.4-0.3,4.4-0.1,8.8-0.1,13.1-0.2,3.3,0,6.5-0.1,9.8-0.2,3.7-0.1,7.5-0.4,11.2-0.6,2-0.1,4-0.3,6-0.5,2.4-0.2,4.9-0.5,7.3-0.6,3.6-0.2,7.3-0.3,10.9-0.5,4.5-0.3,9-0.7,13.6-0.8,4.2-0.2,8.5-0.1,12.7-0.2,3.7-0.1,7.4-0.3,11.2-0.4,2.1-0.1,4.2-0.2,6.3-0.3s4.2-0.1,6.3-0.3c3.6-0.2,7.2-0.6,10.8-0.7,2.3-0.1,4.6,0,6.9-0.1,3.7-0.1,7.5-0.3,11.2-0.3,1.4,0,2.9,0.2,4.7,0.3-0.8,0.7-1.3,1.1-1.9,1.6,0.4,0.1,0.8,0.3,1.2,0.5,0,0.1-0.1,0.2-0.1,0.4-0.5,0-1,0.1-1.5,0.1-0.2,0.5-0.4,0.7-0.6,1.7h1.8c-0.7,0-1.3,0.9-2,1.5,0.1,0.1,0.2,0.1,0.3,0.2-1.1-0.4-1.8-0.2-2.2,0.9,0.3,0.1,0.5,0.1,0.8,0.1-0.1,0.3-0.2,0.6-0.3,1-0.1,0.2-0.2,0.4-0.2,0.7l-0.3-0.3c0-0.2,0-0.4-0.1-0.6-0.6,0.6-1.5,1-1,2.3-0.4,0.2-0.9,0.4-1.4,0.7,0.1,0.2,0.3,0.4,0.4,0.7-0.9,0.1-1.8,0.3-1.6,1.4,0.4,0.1,0.8,0.3,1.1,0.4-0.5,0.2-1,0.5-1.5,0.7-0.1,0.2-0.2,0.7-0.4,0.8-1.4,0.3-0.6,0.8-0.2,1.3-0.3,0.2-0.6,0.4-0.9,0.5,0.3,0.1,0.5,0.2,0.7,0.4-0.3,0.2-0.5,0.3-0.7,0.4,0.2,0.1,0.5,0.3,0.6,0.3-0.4,0.3-0.9,0.7-1.5,1.2,0,0.2,0,0.3,0.1,0.5-0.4,0.4-0.8,0.8-1.2,1.4s-0.6,1.4-1.1,2c-2.1,2.3-3.6,5-6.3,6.8-1,0.7-1.9,1.6-2.8,2.5-1.8,1.7-3.4,3.6-5.3,5.2-2.5,2.1-5.1,4-7.8,5.9-3.3,2.3-6.6,4.6-9.9,6.8-1.8,1.2-3.8,2.1-5.7,3.2s-3.7,2.1-5.6,3.2c-1.2,0.8-2.3,1.9-3.6,2.5-3.3,1.4-6.8,2.6-10.2,3.9-0.3,0.1-0.5,0.2-0.8,0.3-2.5,1.1-4.9,2.3-7.4,3.2-2.3,0.8-4.7,1.4-7.1,1.9-0.8,0.2-1.7,0-2.6,0.1-1.7,0.3-3.4,0.7-5.1,0.9-4.4,0.6-8.8,1-13.2,1.6-2.6,0.3-5.1,0.8-7.7,1.1-1.8,0.1-3.7-0.1-5.5-0.1-1.3,0-2.7,0.3-4,0.1-2.1-0.3-4.2-0.8-6.3-1.2-0.5-0.1-1.2-0.3-1.6-0.1-0.8,0.4-1.5-0.2-2.3,0-0.5,0.1-1-0.3-1.5-0.3-0.4-0.1-0.9,0.1-1.4,0-1.1-0.3-2.1-0.7-3.3-0.6s-2.4-0.5-3.7-0.8c-1.8-0.4-3.5-0.8-5.3-1.2-0.7-0.2-1.3-0.5-2-0.9-0.2,0.1-0.5,0.3-0.9,0.3-1.7-0.3-3.4-0.4-5-1-1.4-0.5-2.7-1.2-4.2-1-0.4,0.1-0.7-0.1-1.1-0.1-0.3-0.4-0.6-1.2-0.9-1.2-2,0.1-3.2-1.6-4.9-2.1-0.9-0.3-1.6-1.3-2.5-1.6-2.2-0.9-4-2.8-6.5-3.1-0.8-0.1-1.6-0.5-2.5-0.8,0.3,0.4,0.5,0.7,0.8,1-0.1,0.1-0.2,0.2-0.2,0.2-2.7-1.6-5.4-3.2-8.1-4.7-0.4-0.1-0.7-0.5-1-0.7-0.9-0.6-1.8-1.2-2.7-1.8-0.3-0.2-0.9-0.5-0.9-0.4-0.6,0.7-1.2,0.1-1.6-0.1-2.7-1.9-5.8-3.1-8.4-5.2-1.1-0.9-2.4-1.5-3.2-2.6-1.4-1.7-3.1-2.9-5-3.9-1.5-0.8-2.9-1.7-4.3-2.6-0.7-0.5-1.4-1.1-1.4-2.2,0-0.7-0.3-1.4-1.2-1-0.4-0.6-0.8-1.3-1.3-1.5-1.2-0.5-2-1.4-2.9-2.2s-1.6-1.9-2.7-2.3c-2-0.8-3.2-2.5-4.4-3.9-2.8-3.3-5.3-6.9-7.9-10.4-0.2-0.3-0.6-0.5-0.9-0.8,0,0-0.1,0.1-0.1,0.1,0.5,1,1,1.9,1.5,2.9-0.1,0.1-0.3,0.2-0.4,0.3-0.6-0.7-1.3-1.4-1.9-2.1-0.1,0.1-0.2,0.2-0.3,0.2,2.4,3.8,4.8,7.6,7.2,11.4,0.6,0.9,1.1,1.8,1.7,2.7-0.1,0.1-0.2,0.2-0.4,0.3-1.1-0.2-2.1-1-2.6-1.9-0.9-1.6-1.9-2.6-3.9-2.4-0.2-0.7-0.4-1.5-0.5-2.2-0.4,0-0.7,0-1.4-0.1,1.4,2.2,2.6,4.1,3.9,6.3-0.5-0.3-0.8-0.5-1-0.6,1.8,1.9,3.1,4.3,5.4,5.5,0.5,2.3,3.1,3.4,3.7,5.6-0.5-0.1-0.9-0.2-1.4-0.3-0.8-1-1.7-2-2.6-3.1,0.2,0.7,0.5,1.3,0.9,1.8,1.2,1.5,2.3,3,3.7,4.3,0.5,0.5,1.2,0.7,1.2,1.6,0.2-0.2,0.4-0.3,0.8-0.5-0.2,0.4-0.3,0.6-0.4,0.9,0.4,0,0.7,0.1,1,0.1,0.2,0.6-0.1,1.5,1.1,1.3,0.1,0,0.2,0.1,0.3,0.2,0.5,1.3,1.3,1.3,2.4,0.8,0.2-0.1,0.7,0,0.8,0.2,0.5,1.1,1.2,1.2,2.1,0.4,0,0.5,0.1,1,0.1,1.4h0.4c0-0.2-0.1-0.5-0.1-1,0.5,0.4,0.8,0.6,1,0.8,1,1.4,1.9,2.7,3.3,3.8,1.9,1.6,3.6,3.3,5.4,4.8,3.5,2.9,7.4,5.3,11.3,7.5,4.8,2.7,9.4,5.6,14.3,8.2,5.9,3.1,12.2,5.2,18.7,6.7,2.4,0.5,4.7,1,7.1,1.6,2.1,0.6,4.2,1.5,6.3,2,3.2,0.7,6.5,1.3,9.7,1.9,0.7,0.1,1.4,0.2,2.2,0.3v0.2c0.9,0,2-0.4,2.2-0.1,0.5,0.8,0.9,0.4,1.5,0.3,0.7-0.2,1.5-0.2,2.3-0.2,2.8,0.1,5.5,0.7,8.3,0.5,0.6,0,1.5-0.5,2,0.5,0.2-0.1,0.3-0.2,0.5-0.3,0.4-0.1,0.9-0.1,1.3-0.2v0.2c-0.2,0.1-0.4,0.1-0.8,0.2,0.5,0.1,0.8,0.2,1.1,0.3-0.2,0.2-0.3,0.2-0.5,0.3s-0.5,0.2-0.9,0.5c3.6,0.7,7,0.8,10,0v-0.6h0.4c0,0.2,0.1,0.4,0.2,0.6,4.6,0.4,9.1-0.2,13.4-1.7,0.4,0.5,0.7,1.2,1.3,0.2,0.2-0.3,0.7-0.4,1.1-0.5,0.9-0.2,2-0.6,2.8-0.3,0.9,0.3,1.2-0.5,1.9-0.5,1.2,0,2.3-0.1,3.4-0.3,0.6-0.1,1.2-0.4,1.9-0.6,0-0.1,0-0.2-0.1-0.3-0.7-0.1-1.5-0.2-2.1-0.2,1.2-0.6,2.3-1.1,3.4-1.6,0,0.1,0.1,0.1,0.1,0.2-0.3,0.1-0.5,0.5-0.9,0.5h1.4c-0.3,0-0.7,0.9-1.2,1.5,3.6-0.9,6.9-1.7,10.1-2.5v-0.2c-0.4,0.1-0.7,0.1-1,0.2-0.1-2.1,2.2-1.4,3-2.6-1,0.3-2,0.6-3,0.8v-0.2c3.4-1.5,6.9-3,10.3-4.5,0,0.1,0.1,0.1,0.1,0.2-0.6,0.4-1.2,0.7-2.1,1.2,0.6,0.1,1,0.1,1.3,0.2,0,0.3,0,0.5-0.1,0.6,1.7-0.1,1.3-1.6,1.8-2.5,0.3,0.1,0.7,0.3,1,0.2,0.9-0.2,1.7-0.5,2.6-0.8,1-0.3,2-0.6,3-1,1.6-0.7,3.1-1.6,4.7-2.4,0.3-0.1,0.8,0,1.2,0,0.3,0,0.5-0.2,0.7-0.4,0.4-0.3,0.8-0.9,1.1-0.8,1.4,0.2,2.4-0.3,2.8-1.6,0.1,0,0.1-0.1,0.2-0.1,0.5-0.4,1-0.8,1.5-1.1,2.2-1.2,4.3-2.4,6.5-3.6,0.1-0.1,0.3,0,0.5,0,0.3,0,0.7,0,0.9-0.1,1.3-0.6,2.5-1.3,3.7-2-0.3-0.1,0-0.2-1-0.3v-0.2c1-0.2,1.3-0.3,1.9-0.5l-0.2-0.2c2.6-2.6,5.9-4.5,8.4-6.7,0.5,0.1,0.7,0.2,1,0.2,0.1-0.3,0.1-0.6,0.1-0.8,0.4-0.5,0.8-1.1,1.3-1.5,2.2-2,4.6-3.7,6.6-5.8,2.9-2.9,5.7-5.9,8.3-9,2.4-2.8,4.8-5.6,6.8-8.7,2.8-4.3,5.2-8.7,7.7-13.2,1.8-3.2,3.4-6.4,5.2-9.6,0.2-0.3,0.6-0.7,0.9-0.7,2.7-0.3,5.4-0.5,8-0.8,0.6-0.1,1.3-0.5,1.9-0.8-0.3-0.5-0.5-1.1-0.8-1.6-0.4-0.6-1-1.1-1.4-1.7-0.4-0.5-0.7-1.1-1-1.7-0.3-0.5-0.6-0.9-0.9-1.4-0.6-1.1-1.2-2.2-1.7-3.4-0.1-0.3-0.3-0.8-0.2-1.1,1.8-3.9,2.5-8.1,4.2-12,1.7-4,2.2-8.5,3-12.8,0.7-4.1,1.1-8.2,1.6-12.3,0.3-2.9,0.7-5.7,0.8-8.6,0.6-4.6,0.4-8.9,0.3-13.2zm-251.4,111.6c-0.7-0.8-1.3-1.7-2-2.5,0.1-0.1,0.2-0.2,0.3-0.3,1.1,1.2,2.2,2.4,3.3,3.7-0.6-0.3-1.3-0.5-1.6-0.9zm1.6,0.9c0.3-0.1,0.6-0.1,0.9-0.2,0.3,0.5,0.5,1.1,0.8,1.7-1.4-0.1-2.1-0.7-1.7-1.5zm104,41.3v-0.3c1.9-0.2,3.7-0.4,5.6-0.6v0.3c-1.9,0.3-3.7,0.5-5.6,0.6zm25.2-2.6c-1.4,0.3-2.9,0.5-4.3,0.7-0.5,0.1-1.1,0.6-1.3-0.3-0.2,0.1-0.4,0.1-0.6,0.2,0.5,1.5,1.7,0.3,2.7,0.9-2.2,0.3-4.3,0.5-6.4,0.8v-0.2c0.6-0.1,1.3-0.2,1.9-0.3v-0.3c-1-0.1-2-0.2-3-0.2-0.3,0-0.7,0.4-1,0.5-0.4,0.1-0.8,0.2-1.3,0.2-1.7,0.1-3.4,0.1-5,0.2-0.1,0-0.3-0.1-0.4-0.1v-0.3c6.7-0.9,13.3-1.8,20-2.7,0.1,0.2,0.1,0.4,0.2,0.6-0.6,0-1,0.2-1.5,0.3zm1.5-1c2.3-0.3,4.4-0.5,6.6-0.8-4.6,1.3-6.1,1.5-6.6,0.8zm-87.1-201.9c3.2-4.4,6.5-8.8,9.7-13.3,1-1.3,1.8-2.7,2.8-4,0.3-0.4,0.7-0.6,1.2-1,0,0-0.1-0.2-0.1-0.2,0.4-0.5,0.8-0.9,1-1.3,0.5-0.8,0.8-1.7,1.2-2.6,0.1-0.2,0.4-0.4,0.4-0.4,1.4,0.7,1.4-0.8,1.9-1.3,0.9-1,1.8-2.1,2.6-3.1,0.6-0.8,1.2-1.5,1.7-2.4,0.1-0.3-0.2-0.8-0.3-1.2h-0.3c0.3-0.2,0.6-0.5,0.9-0.7,0.1,0,0.1,0,0.2-0.1,0.6-0.9,1.2-1.8,1.8-2.6,1.2-1.6,2.5-3.2,3.9-4.6-0.2,0.5-0.4,1-0.6,1.4,0.1,0,0.1,0.1,0.2,0.1,1.2-1.6,2.5-3.1,3.7-4.7-0.1-0.1-0.2-0.2-0.3-0.2-0.5,0.5-0.9,1-1.4,1.5-0.1-0.1-0.2-0.2-0.3-0.2,1-1.3,2-2.6,3-4.1,0.2,0.3,0.4,0.7,0.8,1.5,0.4-1,0.8-1.7,1.1-2.4-0.3,0.3-0.7,0.6-1,0.9l-0.3-0.3c0.6-0.9,1.2-1.8,1.8-2.7,1.9-2.7,3.8-5.5,5.7-8.2,0.7-1,1.6-1.8,2.2-2.8,1.9-3.8,4.9-6.8,7.2-10.3,0.5-0.7,1.2-1.3,1.8-1.9,0.5-0.6,0.9-0.4,1.3,0.1,2.7,3.4,5.4,6.9,8.1,10.3,2,2.5,4,4.9,5.9,7.5,2.3,3.2,4.5,6.4,6.8,9.6,2.6,3.7,5.2,7.4,7.7,11.2,3.8,5.6,7.4,11.2,11.2,16.8,2.8,4.1,5.6,8.1,8.3,12.2h-5.1c-4.7-0.1-9.5-0.5-14.2-0.3-6.4,0.3-12.9,1-19.3,1.5-8.1,0.7-16.3,0.8-24.4,0.8-2.9,0-5.8,0.4-8.7,0.6-3.5,0.2-6.9,0.4-10.4,0.5-4.1,0.2-8.1,0.3-12.2,0.4-2.3,0.1-4.7,0-7.2,0zm114.7,46v0.9c-0.1,0-0.2,0.1-0.4,0.1-0.4-1.4-0.8-2.9-1.3-4.3-1-2.9-2.1-5.8-3.9-8.4-2-2.8-3.8-5.7-5.8-8.6-0.5-0.7-1.2-1.3-1.8-1.9-2.1-2.3-4.2-4.7-6.9-6.4-4-2.5-8.1-4.6-12.5-6.4-1.2-0.5-2.3-1.1-3.5-1.8h2.4c5.7-0.1,11.4-0.2,17.1-0.3,3.7-0.1,7.3-0.1,11-0.3,0.9,0,1.4,0.3,1.9,1.1,0.9,1.5,1.8,3,2.8,4.5,0.1,0.2,0.3,0.5,0.3,0.8,0,2.2,0,4.5,0.1,6.7,0.1,2.3,0.3,4.5,0.4,6.8,0,2.3-0.2,4.7-0.1,7.1,0.1,3.4,0.2,6.9,0.2,10.4zm-107.6-33.5c4.7-0.2,9.2-0.5,13.8-0.7,3.6-0.2,7.3-0.3,10.9-0.5,1.5-0.1,2.9-0.2,4.4,0-1.6,0.8-3.2,1.6-4.6,2.6-1.8,1.2-3.5,2.8-5.3,4.1s-3.4,2.9-4.9,4.6c-1.9,2.3-4,4.3-6,6.5-1.4,1.6-3,3.1-4.2,4.8-1.7,2.2-3.2,4.6-4.8,7.1,0.5-9.5,1.1-18.9,0.7-28.5zm65.3,96.2c-3.2,0.8-6.5,1.7-9.8,2.1-2.8,0.4-5.7,0.3-8.6,0.3-2.6,0-5.1-0.1-7.7-0.3-2.9-0.3-5.8-0.6-8.6-1.9-2.4-1.1-4.9-2.1-7.3-3.3s-4.8-2.6-6.6-4.8c-1.3-1.6-3.1-2.9-4.7-4.3,0.3,1.2,1,2.2,2.1,2.9-0.5,0.6-1.2,0.3-2.2-1.3-0.3,0.2-0.6,0.3-0.8,0.4,0.3-0.7,0.6-1.4,0.9-2-0.4-0.8-0.9-1.7-1.3-2.5-0.8-1.3-1.6-2.7-2.3-4-0.2-0.3-0.2-0.6-0.4-0.9-0.5-0.6-1-1.2-1.4-1.8-0.8-1.2-1.5-2.5-2.5-3.7,0,0.3,0.1,0.6,0.1,1-0.1,0-0.2,0.1-0.2,0.1-0.7-1.7-1.4-3.4-2.1-5.1-0.1,0-0.1,0-0.2,0.1,0.6,2.2,1.2,4.4,1.8,6.6-0.1,0-0.2,0.1-0.3,0.1-0.3-0.4-0.6-0.8-0.8-1.3-0.2-0.8-0.8-0.8-1.3-0.5-0.3,0.2-0.5,0.9-0.4,1.2,0.7,1.7,1.5,3.4,2.3,5.1,0.2,0.6,0.4,1.1,0.7,1.7,0.1,0.2,0.4,0.4,0.4,0.7,0.4,0.8,0.7,1.6,1.2,2.3,0.9,1.2,1.9,2.4,2.8,3.6s1.7,2.5,2.5,3.7c0.1,0.2,0.4,0.2,0.5,0.3,0.5,1.5,2.2,2.6,3.4,2,0.3,2.3,2.8,3.1,3.8,5.3-1.2-0.5-2.1-0.9-2.9-1.3-0.1,0.1-0.1,0.2-0.2,0.4,1.2,0.6,2.4,1.2,3.5,1.9,1,0.6,2,1.2,2.9,1.9,1.2,1.1,2.6,1.7,4.3,2.1-0.1-0.3-0.2-0.4-0.2-0.4,2.8,1.3,5.7,2.7,7.9,3.8-10.4,0.2-21.5,0.4-33,0.6,0-1.9-0.1-3.7-0.1-5.6,0-0.8,0.2-1.5,0.1-2.3-0.3-4.6-0.3-9.2-0.9-13.7-0.6-4.8-0.6-9.5-0.5-14.3,0.1-2.6-0.1-5.3-0.2-7.9,0-3.5,0-6.9,0.1-10.4,0-0.5,0.2-0.9,0.4-1.4h0.3c0.1,0.2,0,0.5,0.2,0.6,0.3,0.3,0.8,0.8,1,0.7,0.6-0.4,1.5-0.8,1.7-1.4,0.5-1.2,0.7-2.5,0.7-3.7,0-0.9,0.4-1.5,0.8-2.1,0.2-0.3,0.3-0.6,0.5-1-0.4-0.3-0.8-0.5-1.3-0.9,0.4-1.1,0.3-2.4,1.8-3,0.2-0.1,0.2-0.6,0.3-0.9,0.1-0.8,0.2-1.7,0.3-2.5,0.2,0.3,0.3,0.4,0.5,0.6,0.1-0.2,0.2-0.3,0.2-0.3,0-0.4-0.1-1.2,0-1.2,1.2-0.2,0.7-1.5,1.3-2.1,0.1-0.1-0.1-0.4-0.1-0.6s0-0.5,0.1-0.5c1.4-0.3,1.2-1.8,2.1-2.5,0.3-0.2,0.4-0.5,0.8-1,0.8,1.4-0.6,2.1-0.7,3.1,1.7-1,2.2-3.4,1.2-4.1,0.4-0.3,0.8-0.7,1.1-1.1,1.1-1.2,2.3-2.3,3.3-3.5,0.7-0.9,1.1-2,1.8-2.9,0.4-0.5,1.2-0.9,1.8-1.2,1.8-1,3.5-2.1,4.6-3.8,0.2-0.2,0.5-0.4,0.8-0.6s0.9-0.2,1-0.5c0.1-0.2-0.2-0.7-0.4-1,0.4-0.2,0.8-0.6,1.6-1-0.3,0.6-0.4,1-0.6,1.4l0.5,0.5c0.9-0.7,2.3-1.5,3.2-2.1,0-0.1-0.5-0.5-0.5-0.5-0.6,0.3-1.5,0.8-2.4,1.2,0.2-0.3,0.2-0.5,0.3-0.6,1.4-0.9,2.8-1.8,4.3-2.5,3.5-1.6,7-3.2,10.5-4.7,0.6-0.3,1.4-0.1,2.1-0.1,0.3,0,0.5,0,0.8-0.1,1.6-0.5,3.2-1,4.8-1.4,0.7-0.2,1.5-0.3,2.2-0.3,3,0.1,6,0.1,9,0.3,1.3,0.1,2.5,0.4,3.7,0.8,1.5,0.5,3.1,1.2,4.5,1.9,1.7,0.9,3.3,1.9,4.9,3,2.9,1.9,5.6,4,8.5,5.7,2.8,1.7,5,4,6.8,6.6,2.2,3.1,4.7,5.9,5.7,9.7,0.5,2.2,1,4.4,1.5,6.6,0.3,1.2,1,2.4,0.7,3.8-0.5,2.5-0.9,5.1-1.3,7.6-0.2,1-0.4,2-0.3,3,0.2,3.1-1,5.8-2.2,8.6-0.4,0.9-1,1.8-1.5,2.8,0.1,0.1,0.7,0.4,0.8,0.4,0.3-0.6,0.6-1.2,0.9-1.8,0.1,0,0.1,0,0.2,0.1-0.5,1.4-0.9,2.9-1.4,4.3-1.2,3.1-2.4,6.3-3.9,9.3-0.8,1.7-2.2,3.1-3.2,4.7-1,1.4-1.8,2.9-2.8,4.2-0.9,1.1-1.8,2.2-3,3-2.7,2-5.5,4-8.4,5.6-1.8,1.1-3.9,1.7-5.9,2.2zm-53.3-5.3s-0.1,0.1-0.1,0.1c-0.2-0.1-0.5-0.2-0.7-0.4-0.8-1.2-1.6-2.4-2.4-3.6-0.2-0.3-0.3-0.6-0.2-1,1.1,1.7,2.2,3.3,3.4,4.9zm62.2,13.7c4.5-1.9,8.2-4.6,11.6-7.7,0.5-0.5,1-1,1.6-1.4,4.2-2.6,7.3-6.2,10.1-10.2,3.2-4.6,5.3-9.8,7.9-14.7,0.2-0.4,0.4-0.8,0.6-1.1-0.2,11.4,1.1,22.6,2.6,33.9-11.3,0.4-22.8,0.8-34.4,1.2zm101.4-3c-0.1,0.2-0.3,0.4-0.4,0.6-0.1-0.2-0.1-0.5-0.2-0.9-0.6,1.6-1.9,0.8-2.8,0.8-5.4,0.1-10.9,0.1-16.3,0.1-5.2,0-10.5,0-15.7,0.1-1.7,0-3.5,0.4-5.2,0.5-4.1,0.2-8.2,0.3-12.3,0.4-0.3,0-0.6-0.5-1.1-0.9-0.1,0.2-0.3,0.5-0.6,0.9-0.1-0.2-0.3-0.4-0.5-0.7-0.1,0.3-0.2,0.6-0.3,0.8h-0.3c-0.2-1.4-0.6-2.7-0.6-4.1,0-3,0.3-6,0.4-9,0.1-1.4,0-2.7,0-4,0.4,0.3,0.7,0.5,1.1,0.8,0.2-0.4,0.4-0.7,0.6-1,0,0-0.2-0.1-0.4-0.3,0.2-0.1,0.4-0.3,0.4-0.4,0.1-0.3,0.3-0.6,0.3-0.8,0-0.7-0.2-1.3-0.3-1.9,0.1,0,0.2,0,0.3-0.1,0.2,1,0.4,2,0.6,3h0.3c-0.4-0.7,0.9-1.3-0.2-2.1-0.1-0.1,0.1-0.7,0.1-1-0.3-0.6-0.5-1.2-0.8-2,0.1-0.1,0.4-0.2,0.7-0.3-0.4-0.2-0.7-0.4-1-0.5,1-0.9,1-1.4,0.1-2.4,0.2-0.1,0.4-0.1,0.4-0.2,0-0.9,0-1.8-0.2-2.7-0.2-1,0.3-2.2-1.2-2.8,0.1,0.3,0.2,0.5,0.4,0.8,0,0-0.3,0.1-0.6,0.3-1.3-1.2-0.5-2.8-0.8-4.6,0.7,0.2,1.2,0.4,1.7,0.6-0.2-0.7-0.7-1.5-1-2.4h-0.4v-6.6c0,0.1,0.7,0.1,1.1,0.2,0-0.1,0.1-0.2,0.1-0.3-0.3-0.4-0.7-0.8-1.1-1.3,0,0,0.1-0.1,0.2-0.2-0.8-1-0.4-2.4-0.4-2.7v-7c1,1-0.5,2.3,1,2.9v-1h-0.1c-0.1-1.5-0.1-3-0.2-4.5h-0.2c-0.1,0.2-0.1,0.3-0.2,0.5h-0.2c0.2-7.9,0.4-15.8,0.6-23.9,1,1.3,2.1,2.5,2.8,3.8,2.3,4.2,5.3,7.8,8.1,11.6,2.4,3.3,4.6,6.9,6.8,10.3,2.7,4.1,5.3,8.2,8,12.3,2,3.1,4.1,6.2,6.2,9.2,1.9,2.7,3.9,5.3,5.9,7.9,1.7,2.3,3.5,4.6,5.2,6.9,2,2.8,4,5.6,6,8.3,1,1.4,2.1,2.8,3.2,4.2,0.6,0.8,1.5,1.4,2.1,1.9-0.1,0-0.2,0-0.4-0.1,0.3,0.4,0.5,0.7,0.7,0.9,1.1,0.6,1.2,1.2,0.6,2.1zm5.1-25v-0.7c0,0.2,0.1,0.5,0,0.7zm3.4-44.1c-0.1,0-0.7-0.6-0.8-0.7-0.1,0.3,0,0.6-0.2,1-0.1-0.3-0.8-0.2-0.8-0.5-0.1,1.4,0.6,2.8,0.5,4.2,0.3-0.2,1.5-0.3,1.8-0.6,0.1,0.1,0.3,0.2,0.4,0.2-2,1.5-1.5,3-0.6,4.7,0.2,0.4,0.8,1.2,0.2,2-0.2,0.2,0.1,0.8,0.2,1.3h0.3v0.2c-0.3,0.1-0.6,0.2-0.9,0.3-0.2-0.3-1.4-0.9-1.4-1.4v5.1c1,0.3,1,1.7,1.4,2.4,0.2-0.3,0.3-0.5,0.4-0.8l0.1,0.1c-0.1,0.6-0.2,1.2-0.4,1.8-0.2,0.9-0.4,1.7-0.5,2.6,0,0.1,0.2,0.3,0.2,0.4-1.1,2.5-0.5,5.3-0.9,7.9-0.3,1.9,0,3.9-0.2,5.9-0.2,1.7-0.6,3.5-1,5.2-0.1,0.3-0.3,0.4-0.8,0.6,0.2-1.2,0.1-2-0.1-3.1-0.1,0-1.4-0.7-1.5-0.7,0,1.4,0.8,3.3,1.1,4.9-0.3-0.1-1.5-0.8-1.6-0.8-0.2,1.2-0.2,2.8-0.3,4.1-0.1,1-1,1.9-1.1,3,0,0.6,0.7,1,0.6,2h0.8c0-2,0.9-3.8,0.9-5.9h0.3c0.1,0.2,0.4,0.4,0.3,0.5-0.2,1.1-0.6,2.3-0.5,3.4,0,0.6,0.5,1.2,0.3,1.9-0.2,0.6-0.3,1.2-0.4,2.1-0.1-0.5-0.2-0.7-0.2-1-0.1,0-1-0.1-1.1-0.1-0.1,0.6,0.7,1.2,0.6,1.7-0.1,0.1-0.2,0.1-0.4,0.2-1.1-1.6-2.2-3.2-3.3-4.8-2.6-3.8-5.2-7.6-7.8-11.5-0.7-1-1.3-2-1.8-3-3.1-5.3-6.5-10.4-10.3-15.3-2.9-3.7-5.2-7.7-7.9-11.6-2.5-3.7-5-7.3-7.5-11-0.9-1.2-2-2.3-2.8-3.6-2.6-4.1-4.9-8.3-7.5-12.4-2.2-3.4-4.6-6.7-6.9-10-0.8-1.1-1.6-2.3-2.4-3.5-0.1-0.2-0.2-0.4-0.2-0.7-0.2-2.2-0.4-4.4-0.5-6.5,0-2,0.2-4,0.2-6.1v-1.8c0-0.5,0.1-0.9,0.1-1.4,0.1-0.1,0.2-0.3,0.3-0.4-2.9,0-5.9-0.1-8.8,0-1.9,0.1-2.9-0.7-4.2-2.1-3.8-4.3-6.6-9.2-9.9-13.8-3.1-4.4-6.3-8.7-9.5-13-2.6-3.5-5.2-6.9-7.8-10.4-2.9-4-5.7-8-8.7-12-3.6-4.8-7.3-9.6-11-14.4-1.7-2.2-3.6-4.3-5.5-6.6,1.3,0.2,2.5,0.4,3.7,0.5,1.6,0.1,3.2,0.2,4.8,0.3,3.6,0.3,7.2,0.5,10.8,1,3,0.4,6,1,9.1,1.5,6.6,1.1,13.1,2.9,19.4,5,3.7,1.2,7.3,2.8,10.9,4.3,8.1,3.3,15.8,7.3,23.4,11.5,2.4,1.3,3.8,3.4,5.6,5.3,2.6,2.7,5.2,5.4,7.7,8.2,2.9,3.3,5.6,6.7,8.4,10.1,2.5,3,5.1,6,7.6,9,0.8,0.9,1.4,2,2.1,3,1.6,2.4,3.4,4.7,4.8,7.3,1,1.9,1.6,4.1,2.3,6.2,1,3.1,2,6.1,3,9.2,0.7,2.3,1.3,4.7,1.8,7.1,0.4,1.6,0.3,3.3,0.8,4.9,0.6,2.1,0,4.4,0.6,6.5,0.1,0.2,0.2,0.5,0.3,0.7,0.4,0.4,0.7,0.8,0.1,1.4-0.1,0.1-0.1,0.5,0,0.8,0.2-0.2,0.3-0.4,0.5-0.7,0,0.2,0.1,0.3,0.1,0.4,0,0.4-0.1,0.8,0,1.2,0,0.2,0.2,0.5,0.3,0.7,0.2-0.2,0.4-0.3,0.8-0.6,0.9,3.4,1,6.8,1,10.3,0,3.3,0.6,6.6-0.8,9.8,0.3-1.1-0.4-2.1-0.1-3.1z" fill="#DD3735"/><path d="M219.5,174.6c0.1,0,0.2,0.1,0.2,0.1l-0.1-0.1c0-0.1,0-0.1-0.1,0z" fill="#DD3735"/><path d="M235.3,273.4c-1.1,0.8-2.2,1.5-3.6,1.8-0.1-0.1-0.1-0.2-0.2-0.3,1.1-0.7,2.3-1.4,3.4-2.1,0.1,0.2,0.3,0.4,0.4,0.6z" fill="#DD3735"/><path d="M47.8,137.9c1.1-1.4,2.2-2.8,3.4-4.2,0.1,0.1,0.9,0.3,1,0.4-1.1,1.4-2.6,3.3-3.7,4.8-0.2-0.2-0.5-0.9-0.7-1z" fill="#DD3735"/><path d="M19.4,186.9c-0.8-1.7-1.6-3.5-2.4-5.2,0.1-0.1,0.8-0.4,0.9-0.4,1.1,1.6,1.6,3.5,2.4,5.2,0,0-0.8,0.4-0.9,0.4z" fill="#DD3735"/><path d="M44.9,138.9c-0.6,0.9-1.2,1.9-1.8,2.8-0.1-0.1-1.2,0.4-1.3,0.3,0.6-0.9,2.1-2.5,2.7-3.4,0.1,0.1,0.2,0.2,0.4,0.3z" fill="#DD3735"/><path d="M224.6,277.5c0.1,0,0.1-0.1,0.2-0.1,0.7,0.1,1.5,0.2,2.3,0.2-1.3,0.9-2.1,0.8-2.5-0.1z" fill="#DD3735"/><path d="M45.3,143.7z" fill="#DD3735"/><path d="M45.1,143.1c0.1-0.3,0.3-0.6,0.5-0.9,0.2,0,0.5-0.1,0.5-0.1,0.4-0.7,0.4-1.2,0.8-1.8-0.1-0.1-0.2-0.1-0.3-0.2-0.6,0.4-1.2,0.9-1.8,1.3,0.2,0.2,0.2,0.3,0.2,0.5-0.8-0.1-1.1,0.3-1.5,1.4-0.1,0.3-0.6,0.4-1.1,0.8-0.1,0.2-0.2,0.7-0.4,1.2l0.1,0.1c-0.2,0.2-0.5,0.3-0.5,0.3-0.6,0.6-1.3,1.1-1.9,1.7-0.1,0.3-0.2,0.6-0.2,0.9,0.7-0.7,1.9-2,2.8-2.8l0.1,0.1c0.4-0.6,0.7-1.2,1.1-1.8,0.1,0.1,0.1,0.2,0.2,0.3-0.3,0.8-0.6,1.7-0.9,2.5-0.2,0.1-0.5,0.3-0.5,0.2-0.4,0.3-0.7,0.7-1.1,1-0.6,0.4-1.2,0.8-1.8,1.2-1,0.9-2,1.7-3.1,2.6-0.7,1.1-1.4,2.1-2.2,3.4,1.2-0.3,1.5,0.2,1.4,1.2,1.4,0.2,1.5-0.9,1.9-1.7,0.1-0.2,0.2-0.6,0.4-0.7,0.9-0.8,1.9-1.5,2.9-2.3,0.2-0.2,0.2-0.6,0.2-0.9,0-0.1-0.5-0.1-0.8-0.2,0.9-1,2.2-2.7,3.1-3.8,0.5-0.3,1-0.7,1-1-0.1-1.1,0.6-1.4,1.4-1.8-0.4-0.3-0.5-0.6-0.5-0.7z" fill="#DD3735"/><path d="M47.1,142c-0.4,0.7-0.8,1.3-1.2,2-0.2-0.1-0.4-0.2-0.6-0.3-0.4,2.3-1.8,4.3-3.2,4.7,0.4,0.2,0.8,0.4,1.1,0.3s0.5-0.6,0.7-0.9c0.9-1.3,1.8-2.6,2.7-3.9,0.3-0.5,0.6-1,0.9-1.5l-0.4-0.4z" fill="#DD3735"/><path d="M13.8,185.9c0.5,0,1,0.1,1.6,0.1,0-0.4,0.5-0.3,0.5-0.7h0.3c0,0.5,0.1,0.9,0.1,1.4h-2.1c-0.1-0.1-0.5-0.7-0.4-0.8z" fill="#DD3735"/><path d="M13,181.3c-0.3-0.3-0.8-0.6-0.8-0.9-0.1-0.4,0.2-0.9,0.5-1.4,0.2,0.7,0.3,1.3,0.5,2-0.1,0.1-0.2,0.2-0.2,0.3z" fill="#DD3735"/><path d="M15.5,174.9c0.4,1,0.8,2.1,1.2,3.1-0.1,0-0.7,0.3-0.8,0.4-0.4-1-0.9-2.1-1.3-3.1,0.1-0.1,0.7-0.4,0.9-0.4z" fill="#DD3735"/><path d="M238.1,270.5c0.5-0.2,1.1-0.3,1.9-0.5-0.9,0.7-1.6,1.2-2.2,1.8-0.1-0.1-0.2-0.2-0.3-0.2,0.2-0.4,0.4-0.7,0.6-1.1z" fill="#DD3735"/><path d="M115.2,59.2c0.6-0.4,1.1-0.7,1.7-1.1l0.2,0.2c-0.6,0.8-1.1,1.6-1.8,2.6-0.1-0.7-0.1-1.1-0.2-1.6-0.1,0,0,0,0.1-0.1z" fill="#DD3735"/><path d="M144.5,109.8c0.9-0.4,1.8-0.8,2.9-1.3-0.1,0.6-0.1,1-0.1,1.4-0.3-0.1-0.7-0.2-1-0.2-0.6,0.1-1.7,0.9-2.2,1-0.1,0,0.4-0.8,0.4-0.9z" fill="#DD3735"/><path d="M219.5,194.6c0.2,1,2.1,1.5,0.2,2.5,0.3,0.2,0.6,0.3,0.9,0.5,0,0.1-0.1,0.3-0.2,0.4-0.2,0.1-0.6,0.3-0.8,0.2-0.1,0-0.3-0.4-0.3-0.6,0-0.9,0.1-1.8,0.2-3z" fill="#DD3735"/></svg>
