<svg width="300" height="300" viewBox="0 0 79 78" xmlns="http://www.w3.org/2000/svg"><title>postcss-logo-symbol</title><g fill="none" fill-rule="evenodd"><path d="M15.447 32.623c.106.08.29.132.106.29-.132.184-.29.342-.395.553-.105.185-.184.237-.342.106.21-.343.42-.66.63-.95zM68.342 60.24c0 .078.026.13.026.21.053-.105.053-.158.08-.21h-.106zm0 .236v-.026.026zm-5.368 10.277l-4.58-25.402c-.078-.026-.183-.078-.368-.13.053.104.08.183.106.262.13-.026.184-.026.236-.052 0-.027 0-.053.027-.08l4.58 25.403zm-4.737-31.12c-.026.078-.026.158-.026.237 0-.08 0-.16.027-.238zm.026.526c-.026 0-.026 0-.052-.027v.026c.027.026.027.026.053 0zm-.052.21v-.184c-.078.026-.157.026-.263.053.132.05.264.078.264.13z" fill="#DD3735"/><path d="M78.71 33.967c-.052-1.028-.078-2.056-.184-3.083-.184-1.397-.368-2.82-.684-4.19-.237-1.133-.63-2.214-1.026-3.294-.5-1.265-1-2.556-1.632-3.768-1.026-1.95-2.368-3.69-3.605-5.508-.817-1.16-1.87-2.108-2.66-3.294-.446-.685-1.104-1.264-1.762-1.79-1.053-.845-2.158-1.61-3.263-2.347-.842-.58-1.684-1.133-2.58-1.634-.71-.396-1.473-.712-2.21-1.055-.842-.395-1.658-.87-2.605-1.054-.237-.05-.447-.13-.684-.21-.605-.21-1.184-.447-1.79-.632-.92-.29-1.815-.632-2.763-.87-.92-.237-1.868-.395-2.816-.527-1.052-.157-2.13-.21-3.184-.315-.684-.08-1.368-.158-2.026-.184-1-.052-2.026-.052-3.026-.078-.5-.027-1.026-.08-1.526-.053-.763.025-1.526.104-2.29.21-.736.08-1.473.21-2.183.316-.868.105-1.736.158-2.605.264-.816.105-1.658.263-2.473.395-.29.053-.58.158-.87.21-.63.132-1.288.185-1.92.396-1.13.344-2.263.74-3.368 1.16-1.027.422-2.027.87-3 1.397-1 .553-1.948 1.212-2.895 1.845-.896.606-1.79 1.238-2.66 1.923-.84.66-1.63 1.397-2.394 2.135-.42.42-.763.922-1.158 1.396-.657.765-1.315 1.502-1.947 2.293-.525.658-1 1.343-1.5 2.028-.894 1.212-1.657 2.503-2.367 3.795-.29.527-.553 1.054-.816 1.58-.395.79-.816 1.555-1.184 2.372-.264.554-.474 1.16-.632 1.766-.367 1.292-.736 2.61-1.078 3.9-.316 1.16-.395 2.372-.42 3.558-.027 1.054.078 2.082.183 3.136.027.264-.13.58.184.79-.106.29-.027.45.13.5-.183.29.08.476-.025.74-.027.052.08.157.13.236 0 .08-.025.185 0 .264.028.237.133.474.133.738 0 .184.158.395.21.58.027.078 0 .21-.052.263-.158.184-.132.342.105.448.133.342.08.5.054.66.052.236-.027.315 0 .368.21.422.29.896.315 1.37 0 .106.052.212.105.343.026 0 0 .5 0 .5.13-.078.237-.104.368-.157.08.343.158.66.263.95.132.21.132.315.08.34.105.475.157.923.34 1.37 0-.5-.05-1-.13-1.474.368.132.684.263.895.263.027-.08.053-.184.08-.237-.158-.158-.29-.395-.448-.553.053.21 0 .29 0 .37-.105-.054-.237-.107-.368-.16.105-.13.21-.263.368-.42 0-.238-.13-.45-.5-.423.158-.052.316-.13.5-.184.29-.158-.026-.448-.026-.817.026-.447-.237-.895-.316-1.37-.132-.737-.105-1.844-.184-2.582-.158-.132-.29.21-.316.237.08.633.158 1.265.21 1.898-.157-.527-.263-1.107-.394-1.74-.027.185-.053.264-.053.37-.13.13-.026.29.053.474-.184-.08-.395-.053-.395-.053v.738c-.262-.264-.34-.474-.473-.66-.052-.21-.08-.42-.13-.63.05-.133 0-.212 0-.29-.028-.186-.054-.396-.08-.634.026-.026-.026-.42-.026-.42.21.025.343.05.474.05-.263-.34-.08-.552.027-.763.053-.105.237-.13.29-.237.21-.395.553-.71.553-1.212 0-.237.08-.5.105-.738.053-.448.105-.896.13-1.344.054-.58 0-1.16.133-1.713.212-.92.475-1.843.764-2.766.21-.658.448-1.29.71-1.95.395-1.027.764-2.055 1.264-3.03.71-1.423 1.526-2.793 2.316-4.19.5-.87 1.026-1.686 1.58-2.53.525-.816 1.05-1.66 1.657-2.424.843-1.08 1.764-2.082 2.79-2.978 1.053-.948 2.053-1.923 3.184-2.793 1.474-1.134 3.027-2.135 4.684-3.005 1.343-.71 2.737-1.265 4.132-1.792.895-.342 1.868-.5 2.79-.79 1.052-.343 2.105-.5 3.21-.527.71-.027 1.395-.106 2.105-.185.632-.05 1.263-.104 1.948-.183-.08.105-.106.158-.132.21-.288.422-.604.844-.894 1.265-.237.343-.5.712-.737 1.054-.422.554-.87 1.107-1.264 1.687-.605.87-1.158 1.766-1.79 2.635-.63.843-1.315 1.634-1.973 2.45-.868 1.134-1.684 2.293-2.552 3.426-.79 1.08-1.63 2.11-2.394 3.19-.684.948-1.29 1.95-1.948 2.924-.973 1.45-1.947 2.872-2.92 4.322-.764 1.106-1.527 2.187-2.316 3.294-.053.08-.132.105-.21.158-.21.342-.21.527-.29.685-.21.395-.42.79-.658 1.16-.132.21-.316.394-.474.605-.026-.316.42-.474.21-.87-.13.212-.263.396-.394.607l-.316.63c.105.08.29.133.105.29-.08.133-.158.29-.237.423.132-.08.21-.158.29-.264 0 .29-.158.526-.29.763-.105.21-.368.37-.552.527.026.027.21.106.237.132.236-.08.315-.21.342-.132.08-.105.158-.184.184-.263.104-.264.262-.474.525-.58.106-.053.184-.132.263-.21.79-.818 1.606-1.608 2.316-2.478 1.105-1.345 2.105-2.74 3.158-4.11.447-.58.974-1.16 1.447-1.714.078.606.026 1.185 0 1.74-.08.974-.132 1.95-.21 2.95-.027.395 0 .79-.027 1.186 0 .105-.08.184-.08.29 0 .263.08.553.08.817-.08.974-.185 1.922-.264 2.897-.027.21.078.422.13.607-.13 1.422.16 2.925-.078 4.427.184-.29.237-.474.237-.658.025-.158 0-.316 0-.5v-.264c.025-.475.13-.975.078-1.45-.053-.527-.053-1.027.053-1.528.053-.21-.026-.474.106-.738v.395c-.027 1.502.026 3.004-.184 4.506-.027.132.08.37-.21.343-.238.474.052.817-.21 1.08-.054.053.05.29.077.448-.106.317-.106.317.052.343.026.58.08 1.107.105 1.66.42-1 .21-2.03.395-3.057.026.422.053.844.026 1.29 0 .687-.026 1.345-.052 2.03 0 .132-.027.264-.053.396-.08.37-.105.738-.237 1.08-.105.264-.052.66-.052.975v1.003c.105.448-.027.685.052.948-.08.265-.105.344-.08.423l.08.395c.527-.053.29.343.5.553-.158.212-.105.29-.105.397 0 .237-.025.448-.052.685 0 .606-.026 1.212-.026 1.792 0 .08.026.158.026.237 0 .054-.026.74-.026.74.053.078 0 .157-.08.236-.025 0-.104-3.347-.104-3.347h-.395c-.052 1.58.08 3.003-.21 4.48-.316.025-.42.078-.764.078-.816 0-1.632 0-2.448.026-.974 0-1.92.027-2.895.027-.473 0-.973.054-1.447.054-.632 0-1.29-.08-1.92-.08-.975 0-1.922.08-2.896.106-.71.026-1.42.026-2.13.053-.475.026-.95.052-1.422.105-.21.026-.395.105-.658.184-.08 0-.263-.026-.42 0-.265.053-.5.21-.765.264-.395.08-.5.184-.448.58v.263c-.026.052.58-.08.58-.08-.054 0-.08.158-.16.29.212-.08.343-.132.475-.184.395.184.737.08 1.052.158 1.026.263 2.078.37 3.13.474.685.053 1.343.08 2.027.105.974.053 1.948.106 2.92.106.817 0 1.607-.08 2.422-.08 1.13 0 2.263.052 3.394.08.237 0 .5-.028.763-.028h1.92c1.712-.052 3.422-.08 5.133-.13.974-.028 1.974-.08 2.947-.107l3-.08c1.158-.025 2.316-.025 3.448-.05.868 0 1.71-.028 2.58-.054.972-.026 1.972-.105 2.946-.157.527-.027 1.054-.08 1.58-.132.632-.052 1.29-.13 1.92-.157.948-.053 1.922-.08 2.87-.132 1.184-.078 2.368-.183 3.578-.21 1.106-.052 2.237-.026 3.343-.052.974-.027 1.948-.08 2.948-.106l1.658-.08s1.105-.025 1.658-.078c.947-.053 1.894-.158 2.842-.184.605-.027 1.21 0 1.816-.027.973-.026 1.973-.08 2.947-.08.367 0 .762.054 1.236.08-.21.185-.342.29-.5.422.105.026.21.08.316.132-.158.105-.29.13-.42.13-.054.133-.107.186-.16.45h.474c-.184 0-.342.237-.526.395-.21-.053-.395 0-.5.29.184.105.158.184.132.29-.316.105-.553.21-.42.553-.107.052-.238.105-.37.184-.13.21-.368.263-.316.553.106.026.21.08.29.105-.132.053-.263.132-.395.184-.473.29-.262.422-.157.554-.08.053-.158.105-.237.132.053.237.132.29.158.29-.105.078-.237.184-.395.316-.08.237-.185.342-.29.5-.105.158-.158.37-.29.527-.552.607-.947 1.32-1.657 1.793-.264.185-.5.422-.737.66-.474.447-.895.948-1.395 1.37-.657.553-1.34 1.053-2.052 1.554-.868.606-1.736 1.212-2.605 1.792-.474.315-1 .552-1.5.842-.5.29-.974.554-1.474.843-.316.21-.606.5-.948.66-.868.368-1.79.684-2.684 1.027-.87.37-1.5.685-2.158.922-.605.21-1.237.37-1.868.5-.21.054-.448 0-.685.027-.447.08-.894.186-1.342.238-1.158.158-2.316.264-3.473.422-.685.08-1.343.21-2.027.29-.473.026-.973-.026-1.447-.026-.342 0-.71.08-1.053.026-.552-.08-1.105-.21-1.658-.316-.13-.027-.315-.08-.42-.027-.21.106-.395-.052-.606 0-.13.027-.262-.08-.394-.08-.105-.025-.237.028-.368 0-.29-.078-.553-.183-.87-.157-.314.026-.63-.132-.972-.21-.474-.106-.92-.21-1.395-.317-.183-.053-.34-.132-.525-.237-.684 0-1.132-.026-1.553-.185-.368-.13-.71-.315-1.105-.262-.105.026-.184-.026-.29-.026-.08-.106-.158-.317-.236-.317-.526.027-.842-.42-1.29-.553-.236-.08-.42-.343-.657-.422-.58-.237-1.052-.737-1.71-.816-.21-.027-.42-.132-.658-.21.08.104.13.183.21.262-.763-.37-1.473-.79-2.184-1.186-.104-.026-.183-.13-.262-.184l-.71-.474c-.395.08-.553-.08-.66-.132-.71-.5-1.525-.817-2.21-1.37-.29-.238-.63-.396-.84-.686-.37-.448-.817-.764-1.317-1.027-.394-.21-.762-.448-1.13-.685-.185-.132-.37-.29-.37-.58 0-.185-.078-.37-.315-.264-.105-.158-.21-.342-.342-.395-.316-.132-.526-.37-.763-.58-.237-.21-.42-.5-.71-.606-.527-.21-.843-.658-1.158-1.027-.737-.87-1.395-1.82-2.08-2.74-.052-.08-.157-.133-.236-.212.105.29.237.527.368.79-.263-.105-.447-.29-.605-.474-.027.027 1.815 3.057 1.815 3.057.158.238.29.476.447.713-.395.026-.658-.185-.79-.422-.236-.42-.5-.684-1.026-.63-.052-.186-.105-.397-.13-.58-.107 0-.185 0-.37-.027.37.58.685 1.08 1.027 1.66-.132-.08-.21-.132-.264-.158.473.5.815 1.133 1.42 1.45.132.605.816.895.974 1.475-.13-.027-.237-.053-.368-.08-.21-.263-.448-.526-.684-.816.052.184.13.342.236.474.316.395.606.79.974 1.133.132.133.316.186.316.423.21.105.29.13.368.13.053.16-.026.397.29.344.21.395.42.395.71.264.342.343.527.37.763.16 0 .13.026.262.026.368.105-.053.08-.132.08-.264.13.105.21.158.262.21.263.37.5.712.868 1.002.5.422.948.87 1.42 1.265.922.765 1.95 1.398 2.975 1.977 1.264.712 2.475 1.476 3.764 2.16 1.553.818 3.21 1.372 4.92 1.767.633.132 1.238.263 1.87.42.552.16 1.105.397 1.658.528.842.185 1.71.343 2.552.5.184.027.37.054.58.08.236.053.525-.053.578.027.132.21.237.104.395.078.184-.053.395-.053.605-.053.737.026 1.447.184 2.184.132.158 0 .395-.132.527.13.236-.104.368-.104.473-.13.027.237 0 .237-.052.263-.053.026-.132.053-.237.132.947.184 1.842.21 2.63 0 1.37.105 2.554-.053 3.686-.448.105.132.184.316.342.053.052-.08.184-.106.29-.132.236-.053.526-.158.736-.08.238.08.317-.13.5-.13.317 0 .606-.027.896-.08.158-.026.316-.105.5-.158-.21-.106-.42-.132-.58-.132.317-.158.606-.29.896-.42-.053.078-.106.183-.21.183h.367c-.08 0-.185.237-.316.395.947-.237 1.815-.448 2.658-.66-.29-.552.315-.367.526-.684-.263.078-.526.157-.79.21.895-.448 1.816-.843 2.71-1.238-.13.158-.29.237-.525.37.158.025.263.025.342.05.42.133.316-.262.447-.5.5 0 .71-.078.947-.158.263-.08.526-.158.79-.263.42-.184.815-.42 1.236-.63.08-.028.21 0 .316 0 .29-.186.394-.344.473-.318.37.053.632-.08.737-.42.184-.133.316-.238.447-.318.578-.316 1.13-.632 1.71-.948.21 0 .316 0 .368-.027.343-.16.658-.343.974-.528-.08-.026-.263-.13-.263-.13.262-.054.34-.08.5-.133.63-.74 1.5-1.24 2.157-1.82.29-.026.29-.105.29-.157.105-.132.21-.29.34-.396.58-.527 1.212-.975 1.738-1.528.763-.765 1.5-1.556 2.184-2.373.63-.738 1.263-1.475 1.79-2.292.736-1.133 1.367-2.293 2.025-3.48.474-.842.895-1.685 1.37-2.528.05-.08.157-.185.236-.185.71-.08 1.422-.132 2.106-.21.158-.027.342-.132.5-.21-.08-.133-.132-.29-.21-.423-.106-.16-.264-.29-.37-.45-.104-.13-.183-.29-.262-.447-.08-.132-.158-.237-.237-.37-.158-.29-.316-.58-.448-.895-.027-.08-.08-.21-.053-.29.474-1.027.658-2.134 1.105-3.162.447-1.054.58-2.24.79-3.373.184-1.08.29-2.16.42-3.24.08-.765.185-1.503.21-2.267.16-1.212.106-2.346.08-3.48-.026-1-.08-2.028-.13-3.03zM12.685 66.405c-.184-.21-.342-.448-.526-.658l.08-.08c.288.317.578.633.867.976-.158-.08-.342-.132-.42-.238zm.42.238c.08-.027.16-.027.238-.053.08.132.132.29.21.448-.368-.027-.552-.185-.447-.395zm27.37 10.883v-.08c.5-.052.973-.105 1.473-.157v.078c-.5.08-.973.13-1.473.158zm6.63-.685c-.367.08-.762.132-1.13.185-.132.026-.29.158-.342-.08-.053.027-.106.027-.158.054.13.394.447.078.71.236-.58.08-1.13.132-1.684.21v-.052c.158-.026.342-.053.5-.08v-.078c-.263-.027-.526-.053-.79-.053-.078 0-.184.106-.263.132-.105.026-.21.053-.342.053-.447.026-.894.026-1.316.052-.027 0-.08-.026-.106-.026v-.08c1.763-.236 3.5-.473 5.263-.71.027.052.027.105.053.157-.158 0-.263.054-.395.08zm.396-.263c.605-.08 1.158-.132 1.737-.21-1.21.342-1.605.394-1.737.21zM24.58 23.374c.84-1.16 1.71-2.32 2.552-3.505.263-.344.473-.713.736-1.055.08-.106.185-.158.316-.264l-.026-.05c.105-.133.21-.24.263-.344.133-.21.212-.448.317-.685.026-.052.105-.104.105-.104.37.184.37-.21.5-.343.237-.264.474-.553.684-.817.158-.21.316-.395.448-.632.026-.08-.053-.21-.08-.317h-.078c.08-.052.158-.13.237-.184.026 0 .026 0 .052-.026.158-.238.316-.475.474-.686.315-.42.657-.842 1.025-1.21-.052.13-.105.263-.158.368.027 0 .027.027.053.027.316-.422.658-.817.974-1.24-.027-.025-.053-.052-.08-.052-.13.132-.236.264-.368.396-.026-.028-.052-.054-.08-.054.265-.343.528-.685.79-1.08.053.08.106.184.21.395.107-.263.212-.447.29-.632-.078.08-.183.158-.262.238l-.08-.08.474-.71c.5-.712 1-1.45 1.5-2.162.185-.263.42-.474.58-.738.5-1 1.29-1.792 1.894-2.714.132-.184.316-.342.474-.5.13-.16.237-.106.342.026.71.896 1.42 1.818 2.13 2.714.528.66 1.054 1.29 1.554 1.976.605.844 1.184 1.687 1.79 2.53.684.975 1.368 1.95 2.026 2.95 1 1.477 1.947 2.953 2.947 4.428.737 1.08 1.474 2.135 2.184 3.215h-1.343c-1.236-.025-2.5-.13-3.736-.078-1.684.08-3.394.264-5.078.396-2.132.184-4.29.21-6.42.21-.765 0-1.528.106-2.29.158-.922.053-1.817.106-2.738.132-1.08.053-2.13.08-3.21.106-.606.026-1.237 0-1.895 0zm30.183 12.12v.238c-.026 0-.052.027-.105.027-.105-.37-.21-.765-.342-1.134-.263-.765-.553-1.53-1.027-2.214-.527-.738-1-1.502-1.527-2.266-.13-.185-.316-.343-.474-.5-.553-.607-1.106-1.24-1.816-1.687-1.053-.66-2.132-1.213-3.29-1.688-.316-.13-.605-.29-.92-.474h.63l4.5-.08c.974-.025 1.922-.025 2.895-.078.236 0 .368.08.5.29.236.395.473.79.736 1.186.027.052.08.13.08.21 0 .58 0 1.186.026 1.766.026.606.08 1.186.105 1.792 0 .606-.053 1.238-.026 1.87.027.897.053 1.82.053 2.74zM26.447 26.67c1.237-.053 2.42-.132 3.632-.185.946-.053 1.92-.08 2.867-.132.395-.025.764-.05 1.158 0-.42.212-.842.423-1.21.686-.474.317-.92.738-1.395 1.08-.474.343-.895.765-1.29 1.213-.5.605-1.052 1.132-1.578 1.712-.37.422-.79.817-1.106 1.265-.447.58-.842 1.212-1.263 1.87.132-2.503.29-4.98.184-7.51zm17.185 25.35c-.843.21-1.71.448-2.58.553-.736.106-1.5.08-2.263.08-.685 0-1.343-.026-2.027-.08-.763-.078-1.526-.157-2.263-.5-.632-.29-1.29-.553-1.92-.87-.633-.316-1.264-.684-1.738-1.264-.342-.422-.816-.764-1.237-1.133.08.316.263.58.553.764-.132.158-.316.08-.58-.343-.078.053-.157.08-.21.106.08-.185.158-.37.237-.527-.105-.21-.237-.448-.342-.66-.21-.342-.42-.71-.605-1.053-.053-.08-.053-.158-.105-.237-.132-.158-.264-.317-.37-.475-.21-.316-.394-.658-.657-.975 0 .08.027.158.027.264-.027 0-.053.026-.053.026l-.553-1.344c-.026 0-.026 0-.052.026l.473 1.74c-.026 0-.052.025-.08.025-.077-.104-.156-.21-.21-.34-.052-.212-.21-.212-.34-.133-.08.053-.133.237-.106.316.184.448.394.896.605 1.344.052.158.105.29.184.448.027.053.106.105.106.184.106.21.185.42.316.606.237.316.5.632.737.948.236.316.446.66.657.975.026.052.105.052.13.078.133.396.58.685.896.527.08.606.737.817 1 1.397-.316-.132-.552-.237-.763-.343-.026.026-.026.052-.053.105.316.158.632.316.92.5.265.16.528.317.765.5.315.29.684.45 1.13.554-.025-.08-.05-.106-.05-.106.735.343 1.5.712 2.077 1-2.737.054-5.658.107-8.685.16 0-.5-.026-.975-.026-1.476 0-.21.052-.395.025-.606-.08-1.212-.08-2.425-.237-3.61-.157-1.265-.157-2.504-.13-3.77.025-.684-.027-1.395-.054-2.08 0-.923 0-1.82.027-2.74 0-.133.053-.238.106-.37h.08c.025.053 0 .132.05.158.08.08.212.21.265.185.158-.106.395-.21.448-.37.13-.315.184-.658.184-.974 0-.236.105-.394.21-.553.053-.08.08-.158.132-.263-.105-.08-.21-.132-.342-.237.105-.29.08-.633.474-.79.052-.027.052-.16.08-.238.025-.212.05-.45.078-.66.052.08.08.106.13.158.028-.052.054-.08.054-.08 0-.104-.026-.315 0-.315.316-.053.184-.395.342-.553.026-.027-.026-.106-.026-.158 0-.053 0-.132.026-.132.368-.08.316-.474.553-.66.08-.052.105-.13.21-.262.21.368-.158.553-.184.816.446-.263.578-.895.315-1.08.105-.08.21-.184.29-.29.29-.316.604-.606.868-.922.184-.237.29-.527.473-.764.106-.132.316-.237.474-.317.474-.262.92-.552 1.21-1 .053-.053.132-.105.21-.158.08-.053.238-.053.264-.132.027-.052-.052-.184-.105-.263.104-.053.21-.158.42-.264-.08.158-.105.264-.158.37l.132.13c.237-.184.605-.394.842-.552 0-.026-.132-.13-.132-.13-.158.078-.395.21-.63.315.05-.08.05-.132.078-.158.368-.237.736-.474 1.13-.66.922-.42 1.843-.842 2.764-1.237.158-.08.37-.027.553-.027.078 0 .13 0 .21-.026.42-.132.842-.264 1.263-.37.184-.052.394-.078.58-.078.788.025 1.578.025 2.367.078.342.026.658.105.974.21.394.133.815.317 1.184.5.447.24.868.502 1.29.792.763.5 1.473 1.054 2.236 1.502.737.448 1.316 1.054 1.79 1.74.58.816 1.237 1.554 1.5 2.555l.394 1.74c.08.316.264.632.185 1-.132.66-.237 1.345-.342 2.004-.052.264-.105.528-.078.79.052.818-.264 1.53-.58 2.267-.105.237-.263.475-.394.738.026.026.184.106.21.106l.237-.474c.027 0 .027 0 .053.027-.132.368-.237.764-.37 1.133-.314.817-.63 1.66-1.025 2.45-.21.448-.58.817-.842 1.24-.262.368-.473.763-.736 1.106-.237.29-.473.58-.79.79-.71.527-1.447 1.054-2.21 1.476-.473.29-1.026.448-1.552.58zM29.605 50.62l-.026.027c-.054-.026-.133-.052-.185-.105l-.632-.95c-.052-.078-.08-.157-.052-.262.29.448.58.87.895 1.29zm16.37 3.61c1.183-.5 2.157-1.21 3.05-2.028.133-.132.264-.263.422-.37 1.106-.684 1.92-1.633 2.658-2.687.842-1.212 1.395-2.582 2.08-3.873.052-.106.104-.21.157-.29-.053 3.004.29 5.955.684 8.933-2.973.105-6 .21-9.052.316zm26.683-.79c-.026.053-.08.106-.105.16-.027-.054-.027-.133-.053-.24-.158.423-.5.212-.737.212-1.42.027-2.868.027-4.29.027-1.368 0-2.762 0-4.13.025-.448 0-.922.105-1.37.132-1.078.052-2.157.08-3.236.105-.08 0-.158-.132-.29-.237-.026.053-.08.132-.158.237-.027-.053-.08-.105-.132-.184-.026.08-.053.158-.08.21H58c-.053-.368-.158-.71-.158-1.08 0-.79.08-1.58.105-2.372.027-.368 0-.71 0-1.054.106.08.185.132.29.21.052-.104.105-.183.158-.262 0 0-.053-.027-.106-.08.052-.026.105-.078.105-.105.026-.08.08-.158.08-.21 0-.185-.054-.343-.08-.5.026 0 .052 0 .08-.028l.157.79h.08c-.107-.183.235-.342-.054-.552-.026-.027.026-.185.026-.264-.08-.157-.13-.315-.21-.526.026-.026.105-.053.184-.08-.105-.052-.184-.104-.263-.13.263-.238.263-.37.026-.633.054-.026.106-.026.106-.052 0-.237 0-.474-.052-.71-.053-.265.08-.58-.316-.74.026.08.053.133.105.212 0 0-.08.026-.158.08-.342-.318-.13-.74-.21-1.214.184.053.316.106.447.16-.053-.186-.184-.397-.263-.634h-.106v-1.74c0 .027.184.027.29.054 0-.027.025-.053.025-.08-.08-.105-.185-.21-.29-.342l.053-.053c-.21-.262-.106-.63-.106-.71v-1.845c.264.264-.13.606.264.764v-.264h-.026c-.026-.395-.026-.79-.052-1.186h-.053c-.027.053-.027.08-.054.132h-.052l.158-6.298c.263.342.552.66.736 1 .606 1.108 1.395 2.057 2.132 3.058.632.87 1.21 1.818 1.79 2.714.71 1.08 1.394 2.16 2.105 3.24.526.818 1.08 1.635 1.63 2.426.5.71 1.028 1.396 1.554 2.082.446.606.92 1.212 1.367 1.818.527.738 1.053 1.475 1.58 2.187.262.368.552.737.84 1.106.16.21.396.37.554.5-.025 0-.052 0-.104-.026.08.105.13.184.184.237.29.158.316.316.158.554zM74 46.854v-.185c0 .053.026.132 0 .185zm.895-11.62c-.027 0-.184-.16-.21-.186-.027.08 0 .158-.053.264-.027-.078-.21-.052-.21-.13-.027.368.157.737.13 1.106.08-.053.395-.08.474-.158.027.026.08.052.106.052-.527.396-.395.79-.158 1.24.052.104.21.315.052.526-.052.053.027.21.053.343h.078v.05l-.237.08c-.052-.08-.367-.237-.367-.37v1.345c.263.08.263.448.368.633.054-.08.08-.132.106-.21l.027.025c-.027.158-.053.316-.106.475-.052.237-.105.448-.13.685 0 .026.05.08.05.105-.288.66-.13 1.397-.235 2.082-.08.5 0 1.028-.053 1.555-.054.448-.16.922-.264 1.37-.027.08-.08.105-.21.158.052-.316.026-.527-.027-.817-.027 0-.37-.184-.396-.184 0 .37.21.87.29 1.29-.08-.026-.395-.21-.42-.21-.054.316-.054.738-.08 1.08-.027.264-.263.5-.29.79 0 .16.184.264.158.528h.21c0-.527.237-1 .237-1.555h.078c.027.053.106.106.08.132-.053.29-.16.606-.132.896 0 .158.13.316.08.5-.054.16-.08.317-.107.554-.027-.132-.053-.184-.053-.263-.026 0-.263-.027-.29-.027-.026.158.185.316.158.448-.026.026-.052.026-.105.053l-.868-1.265c-.685-1-1.37-2.003-2.053-3.03-.185-.264-.343-.527-.475-.79-.816-1.398-1.71-2.742-2.71-4.033-.763-.975-1.37-2.03-2.08-3.056-.657-.975-1.315-1.924-1.973-2.9-.237-.315-.526-.605-.737-.948-.684-1.08-1.29-2.187-1.973-3.267-.58-.897-1.21-1.767-1.816-2.636-.21-.29-.42-.607-.632-.923-.026-.05-.052-.104-.052-.183-.053-.58-.106-1.16-.132-1.713 0-.527.053-1.054.053-1.608v-.474c0-.132.026-.237.026-.37.025-.025.052-.078.078-.104-.763 0-1.553-.027-2.316 0-.5.026-.763-.185-1.105-.554-1-1.133-1.737-2.424-2.605-3.636-.816-1.16-1.658-2.293-2.5-3.426-.685-.922-1.37-1.818-2.053-2.74-.764-1.054-1.5-2.108-2.29-3.162-.948-1.265-1.922-2.53-2.895-3.795-.448-.58-.948-1.133-1.448-1.74.342.054.658.106.974.133l1.264.08c.948.078 1.895.13 2.842.262.79.106 1.58.264 2.395.395 1.738.29 3.448.765 5.106 1.318.974.316 1.92.738 2.87 1.133 2.13.87 4.157 1.924 6.157 3.03.63.343 1 .896 1.473 1.397.685.712 1.37 1.423 2.027 2.16.763.87 1.473 1.766 2.21 2.662.658.79 1.342 1.58 2 2.372.21.237.37.527.553.79.42.633.895 1.24 1.263 1.924.262.502.42 1.082.604 1.635.263.817.527 1.607.79 2.424.184.605.342 1.238.473 1.87.106.422.08.87.21 1.29.16.555 0 1.16.16 1.714.025.053.05.132.078.185.105.104.184.21.026.368-.025.026-.025.13 0 .21.054-.052.08-.105.133-.184 0 .053.026.08.026.105 0 .105-.027.21 0 .316 0 .052.052.13.078.184.053-.053.105-.08.21-.158.237.896.264 1.792.264 2.714 0 .87.157 1.74-.21 2.583.078-.29-.106-.555-.027-.818z" fill="#DD3A0A"/><path d="M58.08 45.482c.025 0 .052.027.052.027l-.027-.028c0-.026 0-.026-.026 0zm4.157 26.036c-.29.21-.58.395-.948.474-.027-.026-.027-.053-.053-.08.29-.184.605-.368.895-.553.026.052.08.105.105.158zM12.895 35.81c.29-.367.58-.736.894-1.105.026.026.236.08.263.105-.29.37-.685.87-.974 1.265-.054-.053-.133-.237-.185-.264zM5.42 48.725c-.21-.448-.42-.923-.63-1.37.026-.027.21-.106.236-.106.29.422.42.922.632 1.37 0 0-.21.106-.237.106zm6.712-12.65c-.158.238-.316.502-.474.74-.026-.028-.316.104-.342.078.158-.237.552-.66.71-.896.027.026.053.053.106.08zM59.422 72.6c.025 0 .025-.026.052-.026.184.026.394.052.605.052-.343.237-.554.21-.66-.026zM12.183 37.182c.027-.08.08-.158.132-.237.052 0 .13-.027.13-.027.107-.184.107-.316.212-.474-.026-.026-.053-.026-.08-.053-.157.107-.315.238-.473.344.053.052.053.08.053.132-.21-.027-.29.08-.395.368-.026.08-.158.106-.29.21-.026.054-.052.186-.105.317l.027.028c-.053.053-.132.08-.132.08-.158.157-.342.29-.5.447-.026.08-.052.158-.052.237.185-.184.5-.527.737-.738l.027.027c.105-.158.184-.316.29-.474.025.027.025.053.052.08-.08.21-.158.447-.237.658-.054.026-.133.08-.133.053-.105.08-.184.184-.29.263l-.473.316c-.263.238-.526.448-.816.686-.184.29-.368.553-.58.896.317-.08.396.052.37.316.368.052.395-.237.5-.448.026-.053.053-.158.105-.185.237-.21.5-.394.763-.605.053-.052.053-.158.053-.237 0-.026-.133-.026-.212-.053.237-.263.58-.71.816-1 .132-.08.263-.185.263-.264-.026-.29.158-.368.37-.474-.106-.08-.133-.158-.133-.184z" fill="#DD3735"/><path d="M12.71 36.892c-.105.184-.21.342-.315.527l-.158-.08c-.105.606-.474 1.133-.842 1.238.105.053.21.106.29.08.078-.027.13-.16.183-.238l.71-1.027.238-.396-.105-.105zM3.948 48.46c.132 0 .264.026.42.026 0-.105.133-.08.133-.184h.08c0 .132.025.237.025.37h-.552c-.027-.027-.132-.186-.106-.212zm-.21-1.212c-.08-.08-.21-.158-.21-.237-.027-.105.052-.236.13-.368.054.184.08.342.132.527-.027.025-.053.052-.053.078zm.658-1.687c.105.265.21.555.316.818-.026 0-.184.08-.21.106-.105-.264-.237-.554-.342-.817.026-.026.184-.106.237-.106zm58.58 25.193c.13-.052.288-.08.5-.13-.238.183-.422.315-.58.473-.027-.026-.053-.053-.08-.053.053-.105.106-.184.16-.29zM30.63 15.073c.157-.105.29-.184.447-.29l.052.053c-.158.21-.29.42-.474.685-.026-.184-.026-.29-.053-.42-.026 0 0 0 .027-.027zm7.71 13.334c.237-.106.474-.21.763-.343-.026.158-.026.264-.026.37-.08-.027-.185-.054-.264-.054-.158.027-.448.238-.58.264-.025 0 .106-.21.106-.237zM58.08 50.753c.052.263.552.395.052.658.08.054.157.08.236.133 0 .027-.026.08-.052.106-.053.025-.158.078-.21.05-.027 0-.08-.104-.08-.157 0-.237.027-.474.053-.79z" fill="#DD3735"/></g></svg>
