<svg width="442" height="300" viewBox="0 0 115 78" xmlns="http://www.w3.org/2000/svg"><title>PostCSS-logo</title><g stroke="none" stroke-width="1" fill="none" fill-rule="evenodd"><path d="M113.793564,33.8950197 C113.740932,32.867317 113.714616,31.8396143 113.609353,30.8119116 C113.425143,29.41529 113.240932,27.992317 112.925143,26.6220467 C112.6883,25.4889386 112.293564,24.4085332 111.898827,23.3281278 C111.398827,22.0632629 110.898827,20.7720467 110.267248,19.5598846 C109.240932,17.6098846 107.898827,15.8706954 106.661985,14.0524521 C105.846195,12.8929927 104.793564,11.944344 104.00409,10.7585332 C103.556722,10.0733981 102.898827,9.49366835 102.240932,8.96664132 C101.1883,8.12339808 100.083037,7.35920889 98.9777741,6.62137105 C98.1356689,6.04164132 97.2935636,5.48826294 96.3988268,4.98758727 C95.6883005,4.592317 94.9251426,4.27610078 94.1883005,3.93353321 C93.3461952,3.53826294 92.5304057,3.06393862 91.5830373,2.87947916 C91.3461952,2.82677646 91.1356689,2.7477224 90.8988268,2.66866835 C90.2935636,2.45785754 89.7146163,2.22069538 89.1093531,2.03623592 C88.1883005,1.74637105 87.2935636,1.40380348 86.3461952,1.16664132 C85.4251426,0.92947916 84.4777741,0.771371052 83.5304057,0.639614295 C82.4777741,0.481506187 81.3988268,0.428803484 80.3461952,0.323398079 C79.6619847,0.244344025 78.9777741,0.165289971 78.3198794,0.13893862 C77.3198794,0.0862359169 76.2935636,0.0862359169 75.2935636,0.0598845655 C74.7935636,0.0335332142 74.2672478,-0.0191694885 73.7672478,0.00718186281 C73.0040899,0.0335332142 72.240932,0.112587268 71.4777741,0.217992674 C70.740932,0.297046728 70.0040899,0.428803484 69.2935636,0.53420889 C68.4251426,0.639614295 67.5567215,0.692316998 66.6883005,0.797722403 C65.872511,0.903127809 65.0304057,1.06123592 64.2146163,1.19299267 C63.9251426,1.24569538 63.6356689,1.35110078 63.3461952,1.40380348 C62.7146163,1.53556024 62.0567215,1.58826294 61.4251426,1.79907375 C60.2935636,2.14164132 59.1619847,2.53691159 58.0567215,2.95853321 C57.0304057,3.38015484 56.0304057,3.82812781 55.0567215,4.35515484 C54.0567215,4.90853321 53.1093531,5.567317 52.1619847,6.19974943 C51.2672478,6.80583051 50.372511,7.43826294 49.5040899,8.12339808 C48.6619847,8.78218186 47.872511,9.5200197 47.1093531,10.2578575 C46.6883005,10.6794792 46.3461952,11.1801548 45.9514584,11.6544792 C45.2935636,12.4186683 44.6356689,13.1565062 44.0040899,13.9470467 C43.4777741,14.6058305 43.0040899,15.2909656 42.5040899,15.9761008 C41.6093531,17.1882629 40.8461952,18.4794792 40.1356689,19.7706954 C39.8461952,20.2977224 39.5830373,20.8247494 39.3198794,21.3517765 C38.9251426,22.142317 38.5040899,22.9065062 38.1356689,23.7233981 C37.872511,24.2767765 37.6619847,24.8828575 37.5040899,25.4889386 C37.1356689,26.7801548 36.7672478,28.0977224 36.4251426,29.3889386 C36.1093531,30.5483981 36.0304057,31.7605602 36.0040899,32.9463711 C35.9777741,34.0004251 36.0830373,35.0281278 36.1883005,36.0821819 C36.2146163,36.3456954 36.0567215,36.6619116 36.372511,36.8727224 C36.2672478,37.1625873 36.3461952,37.3206954 36.5040899,37.3733981 C36.3198794,37.6632629 36.5830373,37.8477224 36.4777741,38.1112359 C36.4514584,38.1639386 36.5567215,38.269344 36.6093531,38.3483981 C36.6093531,38.4274521 36.5830373,38.5328575 36.6093531,38.6119116 C36.6356689,38.8490738 36.740932,39.0862359 36.740932,39.3497494 C36.740932,39.5342089 36.8988268,39.7450197 36.9514584,39.9294792 C36.9777741,40.0085332 36.9514584,40.14029 36.8988268,40.1929927 C36.740932,40.3774521 36.7672478,40.5355602 37.0040899,40.6409656 C37.1356689,40.9835332 37.0830373,41.1416413 37.0567215,41.2997494 C37.1093531,41.5369116 37.0304057,41.6159656 37.0567215,41.6686683 C37.2672478,42.09029 37.3461952,42.5646143 37.372511,43.0389386 C37.372511,43.144344 37.4251426,43.2497494 37.4777741,43.3815062 C37.5040899,43.3815062 37.4777741,43.8821819 37.4777741,43.8821819 C37.6093531,43.8031278 37.7146163,43.7767765 37.8461952,43.7240738 C37.9251426,44.0666413 38.0040899,44.3828575 38.1093531,44.6727224 C38.240932,44.8835332 38.240932,44.9889386 38.1883005,45.01529 C38.2935636,45.4896143 38.3461952,45.9375873 38.5304057,46.3855602 C38.5304057,45.8848846 38.4777741,45.3842089 38.3988268,44.9098846 C38.7672478,45.0416413 39.0830373,45.1733981 39.2935636,45.1733981 C39.3198794,45.094344 39.3461952,44.9889386 39.372511,44.9362359 C39.2146163,44.7781278 39.0830373,44.5409656 38.9251426,44.3828575 C38.9777741,44.5936683 38.9251426,44.6727224 38.9251426,44.7517765 C38.8198794,44.6990738 38.6883005,44.6463711 38.5567215,44.5936683 C38.6619847,44.4619116 38.7672478,44.3301548 38.9251426,44.1720467 C38.9251426,43.9348846 38.7935636,43.7240738 38.4251426,43.7504251 C38.5830373,43.6977224 38.740932,43.6186683 38.9251426,43.5659656 C39.2146163,43.4078575 38.8988268,43.1179927 38.8988268,42.7490738 C38.9251426,42.3011008 38.6619847,41.8531278 38.5830373,41.3788035 C38.4514584,40.6409656 38.4777741,39.5342089 38.3988268,38.7963711 C38.240932,38.6646143 38.1093531,39.0071819 38.0830373,39.0335332 C38.1619847,39.6659656 38.240932,40.2983981 38.2935636,40.9308305 C38.1356689,40.4038035 38.0304057,39.8240738 37.8988268,39.1916413 C37.872511,39.3761008 37.8461952,39.4551548 37.8461952,39.5605602 C37.7146163,39.692317 37.8198794,39.8504251 37.8988268,40.0348846 C37.7146163,39.9558305 37.5040899,39.9821819 37.5040899,39.9821819 L37.5040899,40.7200197 C37.240932,40.4565062 37.1619847,40.2456954 37.0304057,40.0612359 C36.9777741,39.8504251 36.9514584,39.6396143 36.8988268,39.4288035 C36.9514584,39.2970467 36.8988268,39.2179927 36.8988268,39.1389386 C36.872511,38.9544792 36.8461952,38.7436683 36.8198794,38.5065062 C36.8461952,38.4801548 36.7935636,38.0848846 36.7935636,38.0848846 C37.0040899,38.1112359 37.1356689,38.1375873 37.2672478,38.1375873 C37.0040899,37.7950197 37.1883005,37.5842089 37.2935636,37.3733981 C37.3461952,37.2679927 37.5304057,37.2416413 37.5830373,37.1362359 C37.7935636,36.7409656 38.1356689,36.4247494 38.1356689,35.9240738 C38.1356689,35.6869116 38.2146163,35.4233981 38.240932,35.1862359 C38.2935636,34.7382629 38.3461952,34.29029 38.372511,33.842317 C38.4251426,33.2625873 38.372511,32.6828575 38.5040899,32.1294792 C38.7146163,31.2071819 38.9777741,30.2848846 39.2672478,29.3625873 C39.4777741,28.7038035 39.7146163,28.0713711 39.9777741,27.4125873 C40.372511,26.3848846 40.740932,25.3571819 41.240932,24.3821819 C41.9514584,22.9592089 42.7672478,21.5889386 43.5567215,20.192317 C44.0567215,19.3227224 44.5830373,18.5058305 45.1356689,17.6625873 C45.6619847,16.8456954 46.1883005,16.0024521 46.7935636,15.2382629 C47.6356689,14.1578575 48.5567215,13.1565062 49.5830373,12.2605602 C50.6356689,11.3119116 51.6356689,10.3369116 52.7672478,9.467317 C54.240932,8.33420889 55.7935636,7.33285754 57.4514584,6.46326294 C58.7935636,5.75177646 60.1883005,5.19839808 61.5830373,4.67137105 C62.4777741,4.32880348 63.4514584,4.17069538 64.372511,3.88083051 C65.4251426,3.53826294 66.4777741,3.38015484 67.5830373,3.35380348 C68.2935636,3.32745213 68.9777741,3.24839808 69.6883005,3.16934402 C70.3198794,3.11664132 70.9514584,3.06393862 71.6356689,2.98488457 C71.5567215,3.09028997 71.5304057,3.14299267 71.5040899,3.19569538 C71.2146163,3.617317 70.8988268,4.03893862 70.6093531,4.46056024 C70.372511,4.80312781 70.1093531,5.17204673 69.872511,5.5146143 C69.4514584,6.06799267 69.0040899,6.62137105 68.6093531,7.20110078 C68.0040899,8.07069538 67.4514584,8.96664132 66.8198794,9.83623592 C66.1883005,10.6794792 65.5040899,11.4700197 64.8461952,12.2869116 C63.9777741,13.4200197 63.1619847,14.5794792 62.2935636,15.7125873 C61.5040899,16.7929927 60.6619847,17.8206954 59.8988268,18.9011008 C59.2146163,19.8497494 58.6093531,20.8511008 57.9514584,21.8261008 C56.9777741,23.2754251 56.0040899,24.6983981 55.0304057,26.1477224 C54.2672478,27.2544792 53.5040899,28.3348846 52.7146163,29.4416413 C52.6619847,29.5206954 52.5830373,29.5470467 52.5040899,29.5997494 C52.2935636,29.942317 52.2935636,30.1267765 52.2146163,30.2848846 C52.0040899,30.6801548 51.7935636,31.0754251 51.5567215,31.444344 C51.4251426,31.6551548 51.240932,31.8396143 51.0830373,32.0504251 C51.0567215,31.7342089 51.5040899,31.5761008 51.2935636,31.1808305 C51.1619847,31.3916413 51.0304057,31.5761008 50.8988268,31.7869116 L50.5830373,32.419344 C50.6883005,32.4983981 50.872511,32.5511008 50.6883005,32.7092089 C50.6093531,32.8409656 50.5304057,32.9990738 50.4514584,33.1308305 C50.5830373,33.0517765 50.6619847,32.9727224 50.740932,32.867317 C50.740932,33.1571819 50.5830373,33.394344 50.4514584,33.6315062 C50.3461952,33.842317 50.0830373,34.0004251 49.8988268,34.1585332 C49.9251426,34.1848846 50.1093531,34.2639386 50.1356689,34.29029 C50.372511,34.2112359 50.4514584,34.0794792 50.4777741,34.1585332 C50.5567215,34.0531278 50.6356689,33.9740738 50.6619847,33.8950197 C50.7672478,33.6315062 50.9251426,33.4206954 51.1883005,33.31529 C51.2935636,33.2625873 51.372511,33.1835332 51.4514584,33.1044792 C52.240932,32.2875873 53.0567215,31.4970467 53.7672478,30.6274521 C54.872511,29.2835332 55.872511,27.8869116 56.9251426,26.5166413 C57.372511,25.9369116 57.8988268,25.3571819 58.372511,24.8038035 C58.4514584,25.4098846 58.3988268,25.9896143 58.372511,26.5429927 C58.2935636,27.5179927 58.240932,28.4929927 58.1619847,29.494344 C58.1356689,29.8896143 58.1619847,30.2848846 58.1356689,30.6801548 C58.1356689,30.7855602 58.0567215,30.8646143 58.0567215,30.9700197 C58.0567215,31.2335332 58.1356689,31.5233981 58.1356689,31.7869116 C58.0567215,32.7619116 57.9514584,33.7105602 57.872511,34.6855602 C57.8461952,34.8963711 57.9514584,35.1071819 58.0040899,35.2916413 C57.872511,36.7146143 58.1619847,38.2166413 57.9251426,39.7186683 C58.1093531,39.4288035 58.1619847,39.244344 58.1619847,39.0598846 C58.1883005,38.9017765 58.1619847,38.7436683 58.1619847,38.5592089 L58.1619847,38.2956954 C58.1883005,37.8213711 58.2935636,37.3206954 58.240932,36.8463711 C58.1883005,36.319344 58.1883005,35.8186683 58.2935636,35.3179927 C58.3461952,35.1071819 58.2672478,34.8436683 58.3988268,34.5801548 L58.3988268,34.9754251 C58.372511,36.4774521 58.4251426,37.9794792 58.2146163,39.4815062 C58.1883005,39.6132629 58.2935636,39.8504251 58.0040899,39.8240738 C57.7672478,40.2983981 58.0567215,40.6409656 57.7935636,40.9044792 C57.740932,40.9571819 57.8461952,41.194344 57.872511,41.3524521 C57.7672478,41.6686683 57.7672478,41.6686683 57.9251426,41.6950197 C57.9514584,42.2747494 58.0040899,42.8017765 58.0304057,43.3551548 C58.4514584,42.3538035 58.240932,41.3261008 58.4251426,40.2983981 C58.4514584,40.7200197 58.4777741,41.1416413 58.4514584,41.5896143 C58.4514584,42.2747494 58.4251426,42.9335332 58.3988268,43.6186683 C58.3988268,43.7504251 58.372511,43.8821819 58.3461952,44.0139386 C58.2672478,44.3828575 58.240932,44.7517765 58.1093531,45.094344 C58.0040899,45.3578575 58.0567215,45.7531278 58.0567215,46.069344 L58.0567215,47.0706954 C58.1619847,47.5186683 58.0304057,47.7558305 58.1093531,48.019344 C58.0304057,48.2828575 58.0040899,48.3619116 58.0304057,48.4409656 L58.1093531,48.8362359 C58.6356689,48.7835332 58.3988268,49.1788035 58.6093531,49.3896143 C58.4514584,49.6004251 58.5040899,49.6794792 58.5040899,49.7848846 C58.5040899,50.0220467 58.4777741,50.2328575 58.4514584,50.4700197 C58.4514584,51.0761008 58.4251426,51.6821819 58.4251426,52.2619116 C58.4251426,52.3409656 58.4514584,52.4200197 58.4514584,52.4990738 C58.4514584,52.5517765 58.4251426,53.2369116 58.4251426,53.2369116 C58.4777741,53.3159656 58.4251426,53.3950197 58.3461952,53.4740738 C58.3198794,53.4740738 58.240932,50.1274521 58.240932,50.1274521 L57.8461952,50.1274521 C57.7935636,51.7085332 57.9251426,53.1315062 57.6356689,54.6071819 C57.3198794,54.6335332 57.2146163,54.6862359 56.872511,54.6862359 C56.0567215,54.6862359 55.240932,54.6862359 54.4251426,54.7125873 C53.4514584,54.7125873 52.5040899,54.7389386 51.5304057,54.7389386 C51.0567215,54.7389386 50.5567215,54.7916413 50.0830373,54.7916413 C49.4514584,54.7916413 48.7935636,54.7125873 48.1619847,54.7125873 C47.1883005,54.7125873 46.240932,54.7916413 45.2672478,54.8179927 C44.5567215,54.844344 43.8461952,54.844344 43.1356689,54.8706954 C42.6619847,54.8970467 42.1883005,54.9233981 41.7146163,54.9761008 C41.5040899,55.0024521 41.3198794,55.0815062 41.0567215,55.1605602 C40.9777741,55.1605602 40.7935636,55.1342089 40.6356689,55.1605602 C40.372511,55.2132629 40.1356689,55.3713711 39.872511,55.4240738 C39.4777741,55.5031278 39.372511,55.6085332 39.4251426,56.0038035 L39.4251426,56.267317 C39.3988268,56.3200197 40.0040899,56.1882629 40.0040899,56.1882629 C39.9514584,56.1882629 39.9251426,56.3463711 39.8461952,56.4781278 C40.0567215,56.3990738 40.1883005,56.3463711 40.3198794,56.2936683 C40.7146163,56.4781278 41.0567215,56.3727224 41.372511,56.4517765 C42.3988268,56.71529 43.4514584,56.8206954 44.5040899,56.9261008 C45.1883005,56.9788035 45.8461952,57.0051548 46.5304057,57.0315062 C47.5040899,57.0842089 48.4777741,57.1369116 49.4514584,57.1369116 C50.2672478,57.1369116 51.0567215,57.0578575 51.872511,57.0578575 C53.0040899,57.0578575 54.1356689,57.1105602 55.2672478,57.1369116 C55.5040899,57.1369116 55.7672478,57.1105602 56.0304057,57.1105602 L57.9514584,57.1105602 C59.6619847,57.0578575 61.372511,57.0315062 63.0830373,56.9788035 C64.0567215,56.9524521 65.0567215,56.8997494 66.0304057,56.8733981 L69.0304057,56.794344 C70.1883005,56.7679927 71.3461952,56.7679927 72.4777741,56.7416413 C73.3461952,56.7416413 74.1883005,56.71529 75.0567215,56.6889386 C76.0304057,56.6625873 77.0304057,56.5835332 78.0040899,56.5308305 C78.5304057,56.5044792 79.0567215,56.4517765 79.5830373,56.3990738 C80.2146163,56.3463711 80.872511,56.267317 81.5040899,56.2409656 C82.4514584,56.1882629 83.4251426,56.1619116 84.372511,56.1092089 C85.5567215,56.0301548 86.740932,55.9247494 87.9514584,55.8983981 C89.0567215,55.8456954 90.1883005,55.8720467 91.2935636,55.8456954 C92.2672478,55.819344 93.240932,55.7666413 94.240932,55.74029 L95.8988268,55.6612359 C95.8988268,55.6612359 97.0040899,55.6348846 97.5567215,55.5821819 C98.5040899,55.5294792 99.4514584,55.4240738 100.398827,55.3977224 C101.00409,55.3713711 101.609353,55.3977224 102.214616,55.3713711 C103.1883,55.3450197 104.1883,55.292317 105.161985,55.292317 C105.530406,55.292317 105.925143,55.3450197 106.398827,55.3713711 C106.1883,55.5558305 106.056722,55.6612359 105.898827,55.7929927 C106.00409,55.819344 106.109353,55.8720467 106.214616,55.9247494 C106.056722,56.0301548 105.925143,56.0565062 105.793564,56.0565062 C105.740932,56.1882629 105.6883,56.2409656 105.635669,56.5044792 L106.109353,56.5044792 C105.925143,56.5044792 105.767248,56.7416413 105.583037,56.8997494 C105.372511,56.8470467 105.1883,56.8997494 105.083037,57.1896143 C105.267248,57.2950197 105.240932,57.3740738 105.214616,57.4794792 C104.898827,57.5848846 104.661985,57.69029 104.793564,58.0328575 C104.6883,58.0855602 104.556722,58.1382629 104.425143,58.217317 C104.293564,58.4281278 104.056722,58.4808305 104.109353,58.7706954 C104.214616,58.7970467 104.319879,58.8497494 104.398827,58.8761008 C104.267248,58.9288035 104.135669,59.0078575 104.00409,59.0605602 C103.530406,59.3504251 103.740932,59.4821819 103.846195,59.6139386 C103.767248,59.6666413 103.6883,59.719344 103.609353,59.7456954 C103.661985,59.9828575 103.740932,60.0355602 103.767248,60.0355602 C103.661985,60.1146143 103.530406,60.2200197 103.372511,60.3517765 C103.293564,60.5889386 103.1883,60.694344 103.083037,60.8524521 C102.977774,61.0105602 102.925143,61.2213711 102.793564,61.3794792 C102.240932,61.9855602 101.846195,62.6970467 101.135669,63.1713711 C100.872511,63.3558305 100.635669,63.5929927 100.398827,63.8301548 C99.9251426,64.2781278 99.5040899,64.7788035 99.0040899,65.2004251 C98.3461952,65.7538035 97.6619847,66.2544792 96.9514584,66.7551548 C96.0830373,67.3612359 95.2146163,67.967317 94.3461952,68.5470467 C93.872511,68.8632629 93.3461952,69.1004251 92.8461952,69.39029 C92.3461952,69.6801548 91.872511,69.9436683 91.372511,70.2335332 C91.0567215,70.444344 90.7672478,70.7342089 90.4251426,70.892317 C89.5567215,71.2612359 88.6356689,71.5774521 87.740932,71.9200197 C86.872511,72.2889386 86.240932,72.6051548 85.5830373,72.842317 C84.9777741,73.0531278 84.3461952,73.2112359 83.7146163,73.3429927 C83.5040899,73.3956954 83.2672478,73.3429927 83.0304057,73.369344 C82.5830373,73.4483981 82.1356689,73.5538035 81.6883005,73.6065062 C80.5304057,73.7646143 79.372511,73.8700197 78.2146163,74.0281278 C77.5304057,74.1071819 76.872511,74.2389386 76.1883005,74.3179927 C75.7146163,74.344344 75.2146163,74.2916413 74.740932,74.2916413 C74.3988268,74.2916413 74.0304057,74.3706954 73.6883005,74.3179927 C73.1356689,74.2389386 72.5830373,74.1071819 72.0304057,74.0017765 C71.8988268,73.9754251 71.7146163,73.9227224 71.6093531,73.9754251 C71.3988268,74.0808305 71.2146163,73.9227224 71.0040899,73.9754251 C70.872511,74.0017765 70.740932,73.8963711 70.6093531,73.8963711 C70.5040899,73.8700197 70.372511,73.9227224 70.240932,73.8963711 C69.9514584,73.817317 69.6883005,73.7119116 69.372511,73.7382629 C69.0567215,73.7646143 68.740932,73.6065062 68.3988268,73.5274521 C67.9251426,73.4220467 67.4777741,73.3166413 67.0040899,73.2112359 C66.8198794,73.1585332 66.6619847,73.0794792 66.4777741,72.9740738 C65.7935636,72.9740738 65.3461952,72.9477224 64.9251426,72.7896143 C64.5567215,72.6578575 64.2146163,72.4733981 63.8198794,72.5261008 C63.7146163,72.5524521 63.6356689,72.4997494 63.5304057,72.4997494 C63.4514584,72.394344 63.372511,72.1835332 63.2935636,72.1835332 C62.7672478,72.2098846 62.4514584,71.7619116 62.0040899,71.6301548 C61.7672478,71.5511008 61.5830373,71.2875873 61.3461952,71.2085332 C60.7672478,70.9713711 60.2935636,70.4706954 59.6356689,70.3916413 C59.4251426,70.36529 59.2146163,70.2598846 58.9777741,70.1808305 C59.0567215,70.2862359 59.1093531,70.36529 59.1883005,70.444344 C58.4251426,70.0754251 57.7146163,69.6538035 57.0040899,69.2585332 C56.8988268,69.2321819 56.8198794,69.1267765 56.740932,69.0740738 L56.0304057,68.5997494 C55.6356689,68.6788035 55.4777741,68.5206954 55.372511,68.4679927 C54.6619847,67.967317 53.8461952,67.6511008 53.1619847,67.0977224 C52.872511,66.8605602 52.5304057,66.7024521 52.3198794,66.4125873 C51.9514584,65.9646143 51.5040899,65.6483981 51.0040899,65.3848846 C50.6093531,65.1740738 50.240932,64.9369116 49.872511,64.6997494 C49.6883005,64.5679927 49.5040899,64.4098846 49.5040899,64.1200197 C49.5040899,63.9355602 49.4251426,63.7511008 49.1883005,63.8565062 C49.0830373,63.6983981 48.9777741,63.5139386 48.8461952,63.4612359 C48.5304057,63.3294792 48.3198794,63.092317 48.0830373,62.8815062 C47.8461952,62.6706954 47.6619847,62.3808305 47.372511,62.2754251 C46.8461952,62.0646143 46.5304057,61.6166413 46.2146163,61.2477224 C45.4777741,60.3781278 44.8198794,59.4294792 44.1356689,58.5071819 C44.0830373,58.4281278 43.9777741,58.3754251 43.8988268,58.2963711 C44.0040899,58.5862359 44.1356689,58.8233981 44.2672478,59.0869116 C44.0040899,58.9815062 43.8198794,58.7970467 43.6619847,58.6125873 C43.6356689,58.6389386 45.4777741,61.669344 45.4777741,61.669344 C45.6356689,61.9065062 45.7672478,62.1436683 45.9251426,62.3808305 C45.5304057,62.4071819 45.2672478,62.1963711 45.1356689,61.9592089 C44.8988268,61.5375873 44.6356689,61.2740738 44.1093531,61.3267765 C44.0567215,61.142317 44.0040899,60.9315062 43.9777741,60.7470467 C43.872511,60.7470467 43.7935636,60.7470467 43.6093531,60.7206954 C43.9777741,61.3004251 44.2935636,61.8011008 44.6356689,62.3808305 C44.5040899,62.3017765 44.4251426,62.2490738 44.372511,62.2227224 C44.8461952,62.7233981 45.1883005,63.3558305 45.7935636,63.6720467 C45.9251426,64.2781278 46.6093531,64.5679927 46.7672478,65.1477224 C46.6356689,65.1213711 46.5304057,65.0950197 46.3988268,65.0686683 C46.1883005,64.8051548 45.9514584,64.5416413 45.7146163,64.2517765 C45.7672478,64.4362359 45.8461952,64.594344 45.9514584,64.7261008 C46.2672478,65.1213711 46.5567215,65.5166413 46.9251426,65.8592089 C47.0567215,65.9909656 47.240932,66.0436683 47.240932,66.2808305 C47.4514584,66.3862359 47.5304057,66.4125873 47.6093531,66.4125873 C47.6619847,66.5706954 47.5830373,66.8078575 47.8988268,66.7551548 C48.1093531,67.1504251 48.3198794,67.1504251 48.6093531,67.0186683 C48.9514584,67.3612359 49.1356689,67.3875873 49.372511,67.1767765 C49.372511,67.3085332 49.3988268,67.44029 49.3988268,67.5456954 C49.5040899,67.4929927 49.4777741,67.4139386 49.4777741,67.2821819 C49.6093531,67.3875873 49.6883005,67.44029 49.740932,67.4929927 C50.0040899,67.8619116 50.240932,68.2044792 50.6093531,68.494344 C51.1093531,68.9159656 51.5567215,69.3639386 52.0304057,69.7592089 C52.9514584,70.5233981 53.9777741,71.1558305 55.0040899,71.7355602 C56.2672478,72.4470467 57.4777741,73.2112359 58.7672478,73.8963711 C60.3198794,74.7132629 61.9777741,75.2666413 63.6883005,75.6619116 C64.3198794,75.7936683 64.9251426,75.9254251 65.5567215,76.0835332 C66.1093531,76.2416413 66.6619847,76.4788035 67.2146163,76.6105602 C68.0567215,76.7950197 68.9251426,76.9531278 69.7672478,77.1112359 C69.9514584,77.1375873 70.1356689,77.1639386 70.3461952,77.19029 C70.5830373,77.2429927 70.872511,77.1375873 70.9251426,77.2166413 C71.0567215,77.4274521 71.1619847,77.3220467 71.3198794,77.2956954 C71.5040899,77.2429927 71.7146163,77.2429927 71.9251426,77.2429927 C72.6619847,77.269344 73.372511,77.4274521 74.1093531,77.3747494 C74.2672478,77.3747494 74.5040899,77.2429927 74.6356689,77.5065062 C74.872511,77.4011008 75.0040899,77.4011008 75.1093531,77.3747494 C75.1356689,77.6119116 75.1093531,77.6119116 75.0567215,77.6382629 C75.0040899,77.6646143 74.9251426,77.6909656 74.8198794,77.7700197 C75.7672478,77.9544792 76.6619847,77.9808305 77.4514584,77.7700197 C78.8198794,77.8754251 80.0040899,77.717317 81.1356689,77.3220467 C81.240932,77.4538035 81.3198794,77.6382629 81.4777741,77.3747494 C81.5304057,77.2956954 81.6619847,77.269344 81.7672478,77.2429927 C82.0040899,77.19029 82.2935636,77.0848846 82.5040899,77.1639386 C82.740932,77.2429927 82.8198794,77.0321819 83.0040899,77.0321819 C83.3198794,77.0321819 83.6093531,77.0058305 83.8988268,76.9531278 C84.0567215,76.9267765 84.2146163,76.8477224 84.3988268,76.7950197 C84.1883005,76.6896143 83.9777741,76.6632629 83.8198794,76.6632629 C84.1356689,76.5051548 84.4251426,76.3733981 84.7146163,76.2416413 C84.6619847,76.3206954 84.6093531,76.4261008 84.5040899,76.4261008 L84.872511,76.4261008 C84.7935636,76.4261008 84.6883005,76.6632629 84.5567215,76.8213711 C85.5040899,76.5842089 86.372511,76.3733981 87.2146163,76.1625873 C86.9251426,75.6092089 87.5304057,75.7936683 87.740932,75.4774521 C87.4777741,75.5565062 87.2146163,75.6355602 86.9514584,75.6882629 C87.8461952,75.24029 88.7672478,74.8450197 89.6619847,74.4497494 C89.5304057,74.6078575 89.372511,74.6869116 89.1356689,74.8186683 C89.2935636,74.8450197 89.3988268,74.8450197 89.4777741,74.8713711 C89.8988268,75.0031278 89.7935636,74.6078575 89.9251426,74.3706954 C90.4251426,74.3706954 90.6356689,74.2916413 90.872511,74.2125873 C91.1356689,74.1335332 91.3988268,74.0544792 91.6619847,73.9490738 C92.0830373,73.7646143 92.4777741,73.5274521 92.8988268,73.3166413 C92.9777741,73.29029 93.1093531,73.3166413 93.2146163,73.3166413 C93.5040899,73.1321819 93.6093531,72.9740738 93.6883005,73.0004251 C94.0567215,73.0531278 94.3198794,72.9213711 94.4251426,72.5788035 C94.6093531,72.4470467 94.740932,72.3416413 94.872511,72.2625873 C95.4514584,71.9463711 96.0040899,71.6301548 96.5830373,71.3139386 C96.7935636,71.3139386 96.8988268,71.3139386 96.9514584,71.2875873 C97.2935636,71.1294792 97.6093531,70.9450197 97.9251426,70.7605602 C97.8461952,70.7342089 97.6619847,70.6288035 97.6619847,70.6288035 C97.9251426,70.5761008 98.0040899,70.5497494 98.1619847,70.4970467 C98.7935636,69.7592089 99.6619847,69.2585332 100.319879,68.6788035 C100.609353,68.6524521 100.609353,68.5733981 100.609353,68.5206954 C100.714616,68.3889386 100.819879,68.2308305 100.951458,68.1254251 C101.530406,67.5983981 102.161985,67.1504251 102.6883,66.5970467 C103.451458,65.8328575 104.1883,65.042317 104.872511,64.2254251 C105.50409,63.4875873 106.135669,62.7497494 106.661985,61.9328575 C107.398827,60.7997494 108.030406,59.64029 108.6883,58.4544792 C109.161985,57.6112359 109.583037,56.7679927 110.056722,55.9247494 C110.109353,55.8456954 110.214616,55.74029 110.293564,55.74029 C111.00409,55.6612359 111.714616,55.6085332 112.398827,55.5294792 C112.556722,55.5031278 112.740932,55.3977224 112.898827,55.3186683 C112.819879,55.1869116 112.767248,55.0288035 112.6883,54.8970467 C112.583037,54.7389386 112.425143,54.6071819 112.319879,54.4490738 C112.214616,54.317317 112.135669,54.1592089 112.056722,54.0011008 C111.977774,53.869344 111.898827,53.7639386 111.819879,53.6321819 C111.661985,53.342317 111.50409,53.0524521 111.372511,52.7362359 C111.346195,52.6571819 111.293564,52.5254251 111.319879,52.4463711 C111.793564,51.4186683 111.977774,50.3119116 112.425143,49.2842089 C112.872511,48.2301548 113.00409,47.044344 113.214616,45.9112359 C113.398827,44.8308305 113.50409,43.7504251 113.635669,42.6700197 C113.714616,41.9058305 113.819879,41.1679927 113.846195,40.4038035 C114.00409,39.1916413 113.951458,38.0585332 113.925143,36.9254251 C113.898827,35.9240738 113.846195,34.8963711 113.793564,33.8950197 Z M59.6619847,23.3017765 C60.5040899,22.142317 61.372511,20.9828575 62.2146163,19.7970467 C62.4777741,19.4544792 62.6883005,19.0855602 62.9514584,18.7429927 C63.0304057,18.6375873 63.1356689,18.5848846 63.2672478,18.4794792 L63.240932,18.4267765 C63.3461952,18.2950197 63.4514584,18.1896143 63.5040899,18.0842089 C63.6356689,17.8733981 63.7146163,17.6362359 63.8198794,17.3990738 C63.8461952,17.3463711 63.9251426,17.2936683 63.9251426,17.2936683 C64.2935636,17.4781278 64.2935636,17.0828575 64.4251426,16.9511008 C64.6619847,16.6875873 64.8988268,16.3977224 65.1093531,16.1342089 C65.2672478,15.9233981 65.4251426,15.7389386 65.5567215,15.5017765 C65.5830373,15.4227224 65.5040899,15.2909656 65.4777741,15.1855602 L65.3988268,15.1855602 C65.4777741,15.1328575 65.5567215,15.0538035 65.6356689,15.0011008 C65.6619847,15.0011008 65.6619847,15.0011008 65.6883005,14.9747494 C65.8461952,14.7375873 66.0040899,14.5004251 66.1619847,14.2896143 C66.4777741,13.8679927 66.8198794,13.4463711 67.1883005,13.0774521 C67.1356689,13.2092089 67.0830373,13.3409656 67.0304057,13.4463711 C67.0567215,13.4463711 67.0567215,13.4727224 67.0830373,13.4727224 C67.3988268,13.0511008 67.740932,12.6558305 68.0567215,12.2342089 C68.0304057,12.2078575 68.0040899,12.1815062 67.9777741,12.1815062 C67.8461952,12.3132629 67.740932,12.4450197 67.6093531,12.5767765 C67.5830373,12.5504251 67.5567215,12.5240738 67.5304057,12.5240738 C67.7935636,12.1815062 68.0567215,11.8389386 68.3198794,11.4436683 C68.372511,11.5227224 68.4251426,11.6281278 68.5304057,11.8389386 C68.6356689,11.5754251 68.740932,11.3909656 68.8198794,11.2065062 C68.740932,11.2855602 68.6356689,11.3646143 68.5567215,11.4436683 L68.4777741,11.3646143 L68.9514584,10.6531278 C69.4514584,9.94164132 69.9514584,9.20380348 70.4514584,8.492317 C70.6356689,8.22880348 70.872511,8.01799267 71.0304057,7.75447916 C71.5304057,6.75312781 72.3198794,5.96258727 72.9251426,5.04028997 C73.0567215,4.85583051 73.240932,4.6977224 73.3988268,4.5396143 C73.5304057,4.38150619 73.6356689,4.43420889 73.740932,4.56596565 C74.4514584,5.46191159 75.1619847,6.38420889 75.872511,7.28015484 C76.3988268,7.93893862 76.9251426,8.57137105 77.4251426,9.25650619 C78.0304057,10.0997494 78.6093531,10.9429927 79.2146163,11.7862359 C79.8988268,12.7612359 80.5830373,13.7362359 81.240932,14.7375873 C82.240932,16.2132629 83.1883005,17.6889386 84.1883005,19.1646143 C84.9251426,20.2450197 85.6619847,21.2990738 86.372511,22.3794792 L85.0304057,22.3794792 C83.7935636,22.3531278 82.5304057,22.2477224 81.2935636,22.3004251 C79.6093531,22.3794792 77.8988268,22.5639386 76.2146163,22.6956954 C74.0830373,22.8801548 71.9251426,22.9065062 69.7935636,22.9065062 C69.0304057,22.9065062 68.2672478,23.0119116 67.5040899,23.0646143 C66.5830373,23.117317 65.6883005,23.1700197 64.7672478,23.1963711 C63.6883005,23.2490738 62.6356689,23.2754251 61.5567215,23.3017765 C60.9514584,23.3281278 60.3198794,23.3017765 59.6619847,23.3017765 L59.6619847,23.3017765 Z M89.8461952,35.4233981 L89.8461952,35.6605602 C89.8198794,35.6605602 89.7935636,35.6869116 89.740932,35.6869116 C89.6356689,35.3179927 89.5304057,34.9227224 89.3988268,34.5538035 C89.1356689,33.7896143 88.8461952,33.0254251 88.372511,32.34029 C87.8461952,31.6024521 87.372511,30.8382629 86.8461952,30.0740738 C86.7146163,29.8896143 86.5304057,29.7315062 86.372511,29.5733981 C85.8198794,28.967317 85.2672478,28.3348846 84.5567215,27.8869116 C83.5040899,27.2281278 82.4251426,26.6747494 81.2672478,26.2004251 C80.9514584,26.0686683 80.6619847,25.9105602 80.3461952,25.7261008 L80.9777741,25.7261008 L85.4777741,25.6470467 C86.4514584,25.6206954 87.3988268,25.6206954 88.372511,25.5679927 C88.6093531,25.5679927 88.740932,25.6470467 88.872511,25.8578575 C89.1093531,26.2531278 89.3461952,26.6483981 89.6093531,27.0436683 C89.6356689,27.0963711 89.6883005,27.1754251 89.6883005,27.2544792 C89.6883005,27.8342089 89.6883005,28.44029 89.7146163,29.0200197 C89.740932,29.6261008 89.7935636,30.2058305 89.8198794,30.8119116 C89.8198794,31.4179927 89.7672478,32.0504251 89.7935636,32.6828575 C89.8198794,33.5788035 89.8461952,34.5011008 89.8461952,35.4233981 L89.8461952,35.4233981 Z M61.5304057,26.5956954 C62.7672478,26.5429927 63.9514584,26.4639386 65.1619847,26.4112359 C66.1093531,26.3585332 67.0830373,26.3321819 68.0304057,26.2794792 C68.4251426,26.2531278 68.7935636,26.2267765 69.1883005,26.2794792 C68.7672478,26.49029 68.3461952,26.7011008 67.9777741,26.9646143 C67.5040899,27.2808305 67.0567215,27.7024521 66.5830373,28.0450197 C66.1093531,28.3875873 65.6883005,28.8092089 65.2935636,29.2571819 C64.7935636,29.8632629 64.240932,30.39029 63.7146163,30.9700197 C63.3461952,31.3916413 62.9251426,31.7869116 62.6093531,32.2348846 C62.1619847,32.8146143 61.7672478,33.4470467 61.3461952,34.1058305 C61.4777741,31.6024521 61.6356689,29.1254251 61.5304057,26.5956954 L61.5304057,26.5956954 Z M78.7146163,51.9456954 C77.872511,52.1565062 77.0040899,52.3936683 76.1356689,52.4990738 C75.3988268,52.6044792 74.6356689,52.5781278 73.872511,52.5781278 C73.1883005,52.5781278 72.5304057,52.5517765 71.8461952,52.4990738 C71.0830373,52.4200197 70.3198794,52.3409656 69.5830373,51.9983981 C68.9514584,51.7085332 68.2935636,51.4450197 67.6619847,51.1288035 C67.0304057,50.8125873 66.3988268,50.4436683 65.9251426,49.8639386 C65.5830373,49.442317 65.1093531,49.0997494 64.6883005,48.7308305 C64.7672478,49.0470467 64.9514584,49.3105602 65.240932,49.4950197 C65.1093531,49.6531278 64.9251426,49.5740738 64.6619847,49.1524521 C64.5830373,49.2051548 64.5040899,49.2315062 64.4514584,49.2578575 C64.5304057,49.0733981 64.6093531,48.8889386 64.6883005,48.7308305 C64.5830373,48.5200197 64.4514584,48.2828575 64.3461952,48.0720467 C64.1356689,47.7294792 63.9251426,47.3605602 63.740932,47.0179927 C63.6883005,46.9389386 63.6883005,46.8598846 63.6356689,46.7808305 C63.5040899,46.6227224 63.372511,46.4646143 63.2672478,46.3065062 C63.0567215,45.99029 62.872511,45.6477224 62.6093531,45.3315062 C62.6093531,45.4105602 62.6356689,45.4896143 62.6356689,45.5950197 C62.6093531,45.5950197 62.5830373,45.6213711 62.5830373,45.6213711 L62.0304057,44.2774521 C62.0040899,44.2774521 62.0040899,44.2774521 61.9777741,44.3038035 L62.4514584,46.0429927 C62.4251426,46.0429927 62.3988268,46.069344 62.372511,46.069344 C62.2935636,45.9639386 62.2146163,45.8585332 62.1619847,45.7267765 C62.1093531,45.5159656 61.9514584,45.5159656 61.8198794,45.5950197 C61.740932,45.6477224 61.6883005,45.8321819 61.7146163,45.9112359 C61.8988268,46.3592089 62.1093531,46.8071819 62.3198794,47.2551548 C62.372511,47.4132629 62.4251426,47.5450197 62.5040899,47.7031278 C62.5304057,47.7558305 62.6093531,47.8085332 62.6093531,47.8875873 C62.7146163,48.0983981 62.7935636,48.3092089 62.9251426,48.4936683 C63.1619847,48.8098846 63.4251426,49.1261008 63.6619847,49.442317 C63.8988268,49.7585332 64.1093531,50.1011008 64.3198794,50.417317 C64.3461952,50.4700197 64.4251426,50.4700197 64.4514584,50.4963711 C64.5830373,50.8916413 65.0304057,51.1815062 65.3461952,51.0233981 C65.4251426,51.6294792 66.0830373,51.84029 66.3461952,52.4200197 C66.0304057,52.2882629 65.7935636,52.1828575 65.5830373,52.0774521 C65.5567215,52.1038035 65.5567215,52.1301548 65.5304057,52.1828575 C65.8461952,52.3409656 66.1619847,52.4990738 66.4514584,52.6835332 C66.7146163,52.8416413 66.9777741,52.9997494 67.2146163,53.1842089 C67.5304057,53.4740738 67.8988268,53.6321819 68.3461952,53.7375873 C68.3198794,53.6585332 68.2935636,53.6321819 68.2935636,53.6321819 C69.0304057,53.9747494 69.7935636,54.3436683 70.372511,54.6335332 C67.6356689,54.6862359 64.7146163,54.7389386 61.6883005,54.7916413 C61.6883005,54.2909656 61.6619847,53.8166413 61.6619847,53.3159656 C61.6619847,53.1051548 61.7146163,52.9206954 61.6883005,52.7098846 C61.6093531,51.4977224 61.6093531,50.2855602 61.4514584,49.0997494 C61.2935636,47.8348846 61.2935636,46.5963711 61.3198794,45.3315062 C61.3461952,44.6463711 61.2935636,43.9348846 61.2672478,43.2497494 C61.2672478,42.3274521 61.2672478,41.4315062 61.2935636,40.5092089 C61.2935636,40.3774521 61.3461952,40.2720467 61.3988268,40.14029 L61.4777741,40.14029 C61.5040899,40.1929927 61.4777741,40.2720467 61.5304057,40.2983981 C61.6093531,40.3774521 61.740932,40.5092089 61.7935636,40.4828575 C61.9514584,40.3774521 62.1883005,40.2720467 62.240932,40.1139386 C62.372511,39.7977224 62.4251426,39.4551548 62.4251426,39.1389386 C62.4251426,38.9017765 62.5304057,38.7436683 62.6356689,38.5855602 C62.6883005,38.5065062 62.7146163,38.4274521 62.7672478,38.3220467 C62.6619847,38.2429927 62.5567215,38.19029 62.4251426,38.0848846 C62.5304057,37.7950197 62.5040899,37.4524521 62.8988268,37.294344 C62.9514584,37.2679927 62.9514584,37.1362359 62.9777741,37.0571819 C63.0040899,36.8463711 63.0304057,36.6092089 63.0567215,36.3983981 C63.1093531,36.4774521 63.1356689,36.5038035 63.1883005,36.5565062 C63.2146163,36.5038035 63.240932,36.4774521 63.240932,36.4774521 C63.240932,36.3720467 63.2146163,36.1612359 63.240932,36.1612359 C63.5567215,36.1085332 63.4251426,35.7659656 63.5830373,35.6078575 C63.6093531,35.5815062 63.5567215,35.5024521 63.5567215,35.4497494 C63.5567215,35.3970467 63.5567215,35.3179927 63.5830373,35.3179927 C63.9514584,35.2389386 63.8988268,34.8436683 64.1356689,34.6592089 C64.2146163,34.6065062 64.240932,34.5274521 64.3461952,34.3956954 C64.5567215,34.7646143 64.1883005,34.9490738 64.1619847,35.2125873 C64.6093531,34.9490738 64.740932,34.3166413 64.4777741,34.1321819 C64.5830373,34.0531278 64.6883005,33.9477224 64.7672478,33.842317 C65.0567215,33.5261008 65.372511,33.2362359 65.6356689,32.9200197 C65.8198794,32.6828575 65.9251426,32.3929927 66.1093531,32.1558305 C66.2146163,32.0240738 66.4251426,31.9186683 66.5830373,31.8396143 C67.0567215,31.5761008 67.5040899,31.2862359 67.7935636,30.8382629 C67.8461952,30.7855602 67.9251426,30.7328575 68.0040899,30.6801548 C68.0830373,30.6274521 68.240932,30.6274521 68.2672478,30.5483981 C68.2935636,30.4956954 68.2146163,30.3639386 68.1619847,30.2848846 C68.2672478,30.2321819 68.372511,30.1267765 68.5830373,30.0213711 C68.5040899,30.1794792 68.4777741,30.2848846 68.4251426,30.39029 L68.5567215,30.5220467 C68.7935636,30.3375873 69.1619847,30.1267765 69.3988268,29.9686683 C69.3988268,29.942317 69.2672478,29.8369116 69.2672478,29.8369116 C69.1093531,29.9159656 68.872511,30.0477224 68.6356689,30.1531278 C68.6883005,30.0740738 68.6883005,30.0213711 68.7146163,29.9950197 C69.0830373,29.7578575 69.4514584,29.5206954 69.8461952,29.3362359 C70.7672478,28.9146143 71.6883005,28.4929927 72.6093531,28.0977224 C72.7672478,28.0186683 72.9777741,28.0713711 73.1619847,28.0713711 C73.240932,28.0713711 73.2935636,28.0713711 73.372511,28.0450197 C73.7935636,27.9132629 74.2146163,27.7815062 74.6356689,27.6761008 C74.8198794,27.6233981 75.0304057,27.5970467 75.2146163,27.5970467 C76.0040899,27.6233981 76.7935636,27.6233981 77.5830373,27.6761008 C77.9251426,27.7024521 78.240932,27.7815062 78.5567215,27.8869116 C78.9514584,28.0186683 79.372511,28.2031278 79.740932,28.3875873 C80.1883005,28.6247494 80.6093531,28.8882629 81.0304057,29.1781278 C81.7935636,29.6788035 82.5040899,30.2321819 83.2672478,30.6801548 C84.0040899,31.1281278 84.5830373,31.7342089 85.0567215,32.419344 C85.6356689,33.2362359 86.2935636,33.9740738 86.5567215,34.9754251 L86.9514584,36.7146143 C87.0304057,37.0308305 87.2146163,37.3470467 87.1356689,37.7159656 C87.0040899,38.3747494 86.8988268,39.0598846 86.7935636,39.7186683 C86.740932,39.9821819 86.6883005,40.2456954 86.7146163,40.5092089 C86.7672478,41.3261008 86.4514584,42.0375873 86.1356689,42.7754251 C86.0304057,43.0125873 85.872511,43.2497494 85.740932,43.5132629 C85.7672478,43.5396143 85.9251426,43.6186683 85.9514584,43.6186683 L86.1883005,43.144344 C86.2146163,43.144344 86.2146163,43.144344 86.240932,43.1706954 C86.1093531,43.5396143 86.0040899,43.9348846 85.872511,44.3038035 C85.5567215,45.1206954 85.240932,45.9639386 84.8461952,46.7544792 C84.6356689,47.2024521 84.2672478,47.5713711 84.0040899,47.9929927 C83.740932,48.3619116 83.5304057,48.7571819 83.2672478,49.0997494 C83.0304057,49.3896143 82.7935636,49.6794792 82.4777741,49.89029 C81.7672478,50.417317 81.0304057,50.944344 80.2672478,51.3659656 C79.7935636,51.6558305 79.240932,51.8139386 78.7146163,51.9456954 L78.7146163,51.9456954 Z M81.0567215,54.1592089 C82.240932,53.6585332 83.2146163,52.9470467 84.1093531,52.1301548 C84.240932,51.9983981 84.372511,51.8666413 84.5304057,51.7612359 C85.6356689,51.0761008 86.4514584,50.1274521 87.1883005,49.0733981 C88.0304057,47.8612359 88.5830373,46.4909656 89.2672478,45.1997494 C89.3198794,45.094344 89.372511,44.9889386 89.4251426,44.9098846 C89.372511,47.9139386 89.7146163,50.86529 90.1093531,53.8429927 C87.1356689,53.9483981 84.1093531,54.0538035 81.0567215,54.1592089 L81.0567215,54.1592089 Z M107.740932,53.3686683 C107.714616,53.4213711 107.661985,53.4740738 107.635669,53.5267765 C107.609353,53.4740738 107.609353,53.3950197 107.583037,53.2896143 C107.425143,53.7112359 107.083037,53.5004251 106.846195,53.5004251 C105.425143,53.5267765 103.977774,53.5267765 102.556722,53.5267765 C101.1883,53.5267765 99.7935636,53.5267765 98.4251426,53.5531278 C97.9777741,53.5531278 97.5040899,53.6585332 97.0567215,53.6848846 C95.9777741,53.7375873 94.8988268,53.7639386 93.8198794,53.79029 C93.740932,53.79029 93.6619847,53.6585332 93.5304057,53.5531278 C93.5040899,53.6058305 93.4514584,53.6848846 93.372511,53.79029 C93.3461952,53.7375873 93.2935636,53.6848846 93.240932,53.6058305 C93.2146163,53.6848846 93.1883005,53.7639386 93.1619847,53.8166413 L93.0830373,53.8166413 C93.0304057,53.4477224 92.9251426,53.1051548 92.9251426,52.7362359 C92.9251426,51.9456954 93.0040899,51.1551548 93.0304057,50.3646143 C93.0567215,49.9956954 93.0304057,49.6531278 93.0304057,49.3105602 C93.1356689,49.3896143 93.2146163,49.442317 93.3198794,49.5213711 C93.372511,49.4159656 93.4251426,49.3369116 93.4777741,49.2578575 C93.4777741,49.2578575 93.4251426,49.2315062 93.372511,49.1788035 C93.4251426,49.1524521 93.4777741,49.0997494 93.4777741,49.0733981 C93.5040899,48.994344 93.5567215,48.91529 93.5567215,48.8625873 C93.5567215,48.6781278 93.5040899,48.5200197 93.4777741,48.3619116 C93.5040899,48.3619116 93.5304057,48.3619116 93.5567215,48.3355602 L93.7146163,49.1261008 L93.7935636,49.1261008 C93.6883005,48.9416413 94.0304057,48.7835332 93.740932,48.5727224 C93.7146163,48.5463711 93.7672478,48.3882629 93.7672478,48.3092089 C93.6883005,48.1511008 93.6356689,47.9929927 93.5567215,47.7821819 C93.5830373,47.7558305 93.6619847,47.7294792 93.740932,47.7031278 C93.6356689,47.6504251 93.5567215,47.5977224 93.4777741,47.5713711 C93.740932,47.3342089 93.740932,47.2024521 93.5040899,46.9389386 C93.5567215,46.9125873 93.6093531,46.9125873 93.6093531,46.8862359 C93.6093531,46.6490738 93.6093531,46.4119116 93.5567215,46.1747494 C93.5040899,45.9112359 93.6356689,45.5950197 93.240932,45.4369116 C93.2672478,45.5159656 93.2935636,45.5686683 93.3461952,45.6477224 C93.3461952,45.6477224 93.2672478,45.6740738 93.1883005,45.7267765 C92.8461952,45.4105602 93.0567215,44.9889386 92.9777741,44.5146143 C93.1619847,44.567317 93.2935636,44.6200197 93.4251426,44.6727224 C93.372511,44.4882629 93.240932,44.2774521 93.1619847,44.04029 L93.0567215,44.04029 L93.0567215,42.3011008 C93.0567215,42.3274521 93.240932,42.3274521 93.3461952,42.3538035 C93.3461952,42.3274521 93.372511,42.3011008 93.372511,42.2747494 C93.2935636,42.169344 93.1883005,42.0639386 93.0830373,41.9321819 L93.1356689,41.8794792 C92.9251426,41.6159656 93.0304057,41.2470467 93.0304057,41.1679927 L93.0304057,39.3233981 C93.2935636,39.5869116 92.8988268,39.9294792 93.2935636,40.0875873 L93.2935636,39.8240738 L93.2672478,39.8240738 C93.240932,39.4288035 93.240932,39.0335332 93.2146163,38.6382629 L93.1619847,38.6382629 C93.1356689,38.6909656 93.1356689,38.717317 93.1093531,38.7700197 L93.0567215,38.7700197 C93.1093531,36.6882629 93.1619847,34.6065062 93.2146163,32.4720467 C93.4777741,32.8146143 93.7672478,33.1308305 93.9514584,33.4733981 C94.5567215,34.5801548 95.3461952,35.5288035 96.0830373,36.5301548 C96.7146163,37.3997494 97.2935636,38.3483981 97.872511,39.244344 C98.5830373,40.3247494 99.2672478,41.4051548 99.9777741,42.4855602 C100.50409,43.3024521 101.056722,44.119344 101.609353,44.9098846 C102.109353,45.6213711 102.635669,46.3065062 103.161985,46.9916413 C103.609353,47.5977224 104.083037,48.2038035 104.530406,48.8098846 C105.056722,49.5477224 105.583037,50.2855602 106.109353,50.9970467 C106.372511,51.3659656 106.661985,51.7348846 106.951458,52.1038035 C107.109353,52.3146143 107.346195,52.4727224 107.50409,52.6044792 C107.477774,52.6044792 107.451458,52.6044792 107.398827,52.5781278 C107.477774,52.6835332 107.530406,52.7625873 107.583037,52.81529 C107.872511,52.9733981 107.898827,53.1315062 107.740932,53.3686683 L107.740932,53.3686683 Z M109.083037,46.7808305 L109.083037,46.5963711 C109.083037,46.6490738 109.109353,46.7281278 109.083037,46.7808305 L109.083037,46.7808305 Z M109.977774,35.1598846 C109.951458,35.1598846 109.793564,35.0017765 109.767248,34.9754251 C109.740932,35.0544792 109.767248,35.1335332 109.714616,35.2389386 C109.6883,35.1598846 109.50409,35.1862359 109.50409,35.1071819 C109.477774,35.4761008 109.661985,35.8450197 109.635669,36.2139386 C109.714616,36.1612359 110.030406,36.1348846 110.109353,36.0558305 C110.135669,36.0821819 110.1883,36.1085332 110.214616,36.1085332 C109.6883,36.5038035 109.819879,36.8990738 110.056722,37.3470467 C110.109353,37.4524521 110.267248,37.6632629 110.109353,37.8740738 C110.056722,37.9267765 110.135669,38.0848846 110.161985,38.2166413 L110.240932,38.2166413 L110.240932,38.269344 L110.00409,38.3483981 C109.951458,38.269344 109.635669,38.1112359 109.635669,37.9794792 L109.635669,39.3233981 C109.898827,39.4024521 109.898827,39.7713711 110.00409,39.9558305 C110.056722,39.8767765 110.083037,39.8240738 110.109353,39.7450197 L110.135669,39.7713711 C110.109353,39.9294792 110.083037,40.0875873 110.030406,40.2456954 C109.977774,40.4828575 109.925143,40.6936683 109.898827,40.9308305 C109.898827,40.9571819 109.951458,41.0098846 109.951458,41.0362359 C109.661985,41.6950197 109.819879,42.4328575 109.714616,43.1179927 C109.635669,43.6186683 109.714616,44.1456954 109.661985,44.6727224 C109.609353,45.1206954 109.50409,45.5950197 109.398827,46.0429927 C109.372511,46.1220467 109.319879,46.1483981 109.1883,46.2011008 C109.240932,45.8848846 109.214616,45.6740738 109.161985,45.3842089 C109.135669,45.3842089 108.793564,45.1997494 108.767248,45.1997494 C108.767248,45.5686683 108.977774,46.069344 109.056722,46.4909656 C108.977774,46.4646143 108.661985,46.2801548 108.635669,46.2801548 C108.583037,46.5963711 108.583037,47.0179927 108.556722,47.3605602 C108.530406,47.6240738 108.293564,47.8612359 108.267248,48.1511008 C108.267248,48.3092089 108.451458,48.4146143 108.425143,48.6781278 L108.635669,48.6781278 C108.635669,48.1511008 108.872511,47.6767765 108.872511,47.1233981 L108.951458,47.1233981 C108.977774,47.1761008 109.056722,47.2288035 109.030406,47.2551548 C108.977774,47.5450197 108.872511,47.8612359 108.898827,48.1511008 C108.898827,48.3092089 109.030406,48.467317 108.977774,48.6517765 C108.925143,48.8098846 108.898827,48.9679927 108.872511,49.2051548 C108.846195,49.0733981 108.819879,49.0206954 108.819879,48.9416413 C108.793564,48.9416413 108.556722,48.91529 108.530406,48.91529 C108.50409,49.0733981 108.714616,49.2315062 108.6883,49.3632629 C108.661985,49.3896143 108.635669,49.3896143 108.583037,49.4159656 L107.714616,48.1511008 C107.030406,47.1497494 106.346195,46.1483981 105.661985,45.1206954 C105.477774,44.8571819 105.319879,44.5936683 105.1883,44.3301548 C104.372511,42.9335332 103.477774,41.5896143 102.477774,40.2983981 C101.714616,39.3233981 101.109353,38.269344 100.398827,37.2416413 C99.740932,36.2666413 99.0830373,35.3179927 98.4251426,34.3429927 C98.1883005,34.0267765 97.8988268,33.7369116 97.6883005,33.394344 C97.0040899,32.3139386 96.3988268,31.2071819 95.7146163,30.1267765 C95.1356689,29.2308305 94.5040899,28.3612359 93.8988268,27.4916413 C93.6883005,27.2017765 93.4777741,26.8855602 93.2672478,26.569344 C93.240932,26.5166413 93.2146163,26.4639386 93.2146163,26.3848846 C93.1619847,25.8051548 93.1093531,25.2254251 93.0830373,24.6720467 C93.0830373,24.1450197 93.1356689,23.6179927 93.1356689,23.0646143 L93.1356689,22.59029 C93.1356689,22.4585332 93.1619847,22.3531278 93.1619847,22.2213711 C93.1883005,22.1950197 93.2146163,22.142317 93.240932,22.1159656 C92.4777741,22.1159656 91.6883005,22.0896143 90.9251426,22.1159656 C90.4251426,22.142317 90.1619847,21.9315062 89.8198794,21.5625873 C88.8198794,20.4294792 88.0830373,19.1382629 87.2146163,17.9261008 C86.3988268,16.7666413 85.5567215,15.6335332 84.7146163,14.5004251 C84.0304057,13.5781278 83.3461952,12.6821819 82.6619847,11.7598846 C81.8988268,10.7058305 81.1619847,9.65177646 80.372511,8.5977224 C79.4251426,7.33285754 78.4514584,6.06799267 77.4777741,4.80312781 C77.0304057,4.22339808 76.5304057,3.6700197 76.0304057,3.06393862 C76.372511,3.11664132 76.6883005,3.16934402 77.0040899,3.19569538 L78.2672478,3.27474943 C79.2146163,3.35380348 80.1619847,3.40650619 81.1093531,3.53826294 C81.8988268,3.64366835 82.6883005,3.80177646 83.5040899,3.93353321 C85.240932,4.22339808 86.9514584,4.6977224 88.6093531,5.25110078 C89.5830373,5.567317 90.5304057,5.98893862 91.4777741,6.38420889 C93.6093531,7.25380348 95.6356689,8.30785754 97.6356689,9.4146143 C98.2672478,9.75718186 98.6356689,10.3105602 99.1093531,10.8112359 C99.7935636,11.5227224 100.477774,12.2342089 101.135669,12.9720467 C101.898827,13.8416413 102.609353,14.7375873 103.346195,15.6335332 C104.00409,16.4240738 104.6883,17.2146143 105.346195,18.0051548 C105.556722,18.242317 105.714616,18.5321819 105.898827,18.7956954 C106.319879,19.4281278 106.793564,20.0342089 107.161985,20.719344 C107.425143,21.2200197 107.583037,21.7997494 107.767248,22.3531278 C108.030406,23.1700197 108.293564,23.9605602 108.556722,24.7774521 C108.740932,25.3835332 108.898827,26.0159656 109.030406,26.6483981 C109.135669,27.0700197 109.109353,27.5179927 109.240932,27.9396143 C109.398827,28.4929927 109.240932,29.0990738 109.398827,29.6524521 C109.425143,29.7051548 109.451458,29.7842089 109.477774,29.8369116 C109.583037,29.942317 109.661985,30.0477224 109.50409,30.2058305 C109.477774,30.2321819 109.477774,30.3375873 109.50409,30.4166413 C109.556722,30.3639386 109.583037,30.3112359 109.635669,30.2321819 C109.635669,30.2848846 109.661985,30.3112359 109.661985,30.3375873 C109.661985,30.4429927 109.635669,30.5483981 109.661985,30.6538035 C109.661985,30.7065062 109.714616,30.7855602 109.740932,30.8382629 C109.793564,30.7855602 109.846195,30.7592089 109.951458,30.6801548 C110.1883,31.5761008 110.214616,32.4720467 110.214616,33.394344 C110.214616,34.2639386 110.372511,35.1335332 110.00409,35.9767765 C110.083037,35.6869116 109.898827,35.4233981 109.977774,35.1598846 L109.977774,35.1598846 Z M47.9777741,35.7396143 C48.2672478,35.3706954 48.5567215,35.0017765 48.872511,34.6328575 C48.8988268,34.6592089 49.1093531,34.7119116 49.1356689,34.7382629 C48.8461952,35.1071819 48.4514584,35.6078575 48.1619847,36.0031278 C48.1093531,35.9504251 48.0304057,35.7659656 47.9777741,35.7396143 L47.9777741,35.7396143 Z M40.5040899,48.6517765 C40.2935636,48.2038035 40.0830373,47.7294792 39.872511,47.2815062 C39.8988268,47.2551548 40.0830373,47.1761008 40.1093531,47.1761008 C40.3988268,47.5977224 40.5304057,48.0983981 40.740932,48.5463711 C40.740932,48.5463711 40.5304057,48.6517765 40.5040899,48.6517765 L40.5040899,48.6517765 Z M47.3058294,37.3411395 C47.1374367,37.428454 47.0080664,37.5226039 47.0304057,37.7686683 C47.0304057,37.8477224 46.8988268,37.9531278 46.7672478,38.0321819 C46.5304057,38.3220467 46.1883005,38.7700197 45.9514584,39.0335332 C46.0304057,39.0598846 46.1619847,39.0598846 46.1619847,39.0862359 C46.1619847,39.16529 46.1619847,39.2706954 46.1093531,39.3233981 C45.8461952,39.5342089 45.5830373,39.7186683 45.3461952,39.9294792 C45.2935636,39.9558305 45.2672478,40.0612359 45.240932,40.1139386 C45.1356689,40.3247494 45.1093531,40.6146143 44.740932,40.5619116 C44.7672478,40.2983981 44.6883005,40.1666413 44.372511,40.2456954 C44.5830373,39.9031278 44.7672478,39.6396143 44.9514584,39.3497494 C45.240932,39.1125873 45.5040899,38.9017765 45.7672478,38.6646143 L46.240932,38.3483981 C46.3461952,38.269344 46.4251426,38.1639386 46.5304057,38.0848846 C46.5304057,38.1112359 46.6093531,38.0585332 46.6619847,38.0321819 C46.740932,37.8213711 46.8198794,37.5842089 46.8988268,37.3733981 C46.872511,37.3470467 46.872511,37.3206954 46.8461952,37.294344 C46.740932,37.4524521 46.6619847,37.6105602 46.5567215,37.7686683 L46.5304057,37.742317 C46.2935636,37.9531278 45.9777741,38.2956954 45.7935636,38.4801548 C45.7935636,38.4011008 45.8198794,38.3220467 45.8461952,38.2429927 C46.0040899,38.0848846 46.1883005,37.9531278 46.3461952,37.7950197 C46.3461952,37.7950197 46.4251426,37.7686683 46.4777741,37.7159656 L46.4514584,37.6896143 C46.5040899,37.5578575 46.5304057,37.4261008 46.5567215,37.3733981 C46.6883005,37.2679927 46.8198794,37.2416413 46.8461952,37.1625873 C46.9514584,36.8727224 47.0304057,36.767317 47.240932,36.7936683 C47.240932,36.7409656 47.240932,36.7146143 47.1883005,36.6619116 C47.3461952,36.5565062 47.5040899,36.4247494 47.6619847,36.319344 C47.6883005,36.3456954 47.7146163,36.3456954 47.740932,36.3720467 C47.6356689,36.5301548 47.6356689,36.6619116 47.5304057,36.8463711 C47.5304057,36.8463711 47.4514584,36.8727224 47.3988268,36.8727224 C47.3461952,36.9517765 47.2935636,37.0308305 47.2672478,37.1098846 L47.2672478,37.1098846 C47.2672478,37.1362359 47.2935636,37.21529 47.3988268,37.294344 C47.394424,37.2965484 47.3900327,37.2987413 47.3856546,37.3009248 L47.4777741,37.3470467 C47.5830373,37.1625873 47.6883005,37.0044792 47.7935636,36.8200197 L47.7935636,36.8200197 L47.8988268,36.9254251 L47.6619847,37.3206954 L46.9514584,38.3483981 C46.8988268,38.4274521 46.8461952,38.5592089 46.7672478,38.5855602 C46.6883005,38.6119116 46.5830373,38.5592089 46.4777741,38.5065062 C46.8312906,38.405365 47.184807,37.9160258 47.3058294,37.3411395 Z M39.4777741,45.4896143 C39.5830373,45.7531278 39.6883005,46.0429927 39.7935636,46.3065062 C39.7672478,46.3065062 39.6093531,46.3855602 39.5830373,46.4119116 C39.4777741,46.1483981 39.3461952,45.8585332 39.240932,45.5950197 C39.2672478,45.5686683 39.4251426,45.4896143 39.4777741,45.4896143 L39.4777741,45.4896143 Z M98.0567215,70.6815062 C98.1883005,70.6288035 98.3461952,70.6024521 98.5567215,70.5497494 C98.3198794,70.7342089 98.1356689,70.8659656 97.9777741,71.0240738 C97.9514584,70.9977224 97.9251426,70.9713711 97.8988268,70.9713711 C97.9514584,70.8659656 98.0040899,70.7869116 98.0567215,70.6815062 L98.0567215,70.6815062 Z" fill="#DD3A0A"></path></g></svg>
